<svg width="201" height="200" viewBox="0 0 201 200" fill="none" xmlns="http://www.w3.org/2000/svg">
<path fill-rule="evenodd" clip-rule="evenodd" d="M57.9595 46.5818V47.2918C57.9595 47.4907 58.0386 47.6815 58.1792 47.8221C58.3199 47.9628 58.5106 48.0418 58.7095 48.0418C58.9085 48.0418 59.0992 47.9628 59.2399 47.8221C59.3805 47.6815 59.4595 47.4907 59.4595 47.2918V46.5418C59.4493 46.3446 59.3637 46.1589 59.2203 46.023C59.077 45.8871 58.887 45.8115 58.6895 45.8118C58.5906 45.8131 58.493 45.8341 58.4023 45.8738C58.3117 45.9134 58.23 45.9708 58.1619 46.0426C58.0939 46.1144 58.0409 46.1991 58.0061 46.2917C57.9714 46.3843 57.9555 46.483 57.9595 46.5818ZM57.6695 44.4918C58.7695 44.2318 59.6695 43.4918 58.0695 43.5918C57.6732 43.6471 57.282 43.734 56.8995 43.8518C55.3995 44.4718 56.6995 44.7218 57.6695 44.4918ZM149.42 51.4518C148.959 52.4186 148.188 53.2036 147.23 53.6818C147.192 53.695 147.161 53.7208 147.141 53.7547C147.12 53.7885 147.113 53.8284 147.118 53.8674C147.124 53.9064 147.144 53.9422 147.173 53.9685C147.202 53.9949 147.24 54.0102 147.28 54.0118C147.603 54.0688 147.936 54.0452 148.248 53.943C148.561 53.8408 148.843 53.6632 149.07 53.4259C149.298 53.1886 149.463 52.899 149.552 52.5826C149.641 52.2662 149.65 51.9327 149.58 51.6118C149.58 51.5694 149.563 51.5287 149.533 51.4987C149.503 51.4687 149.462 51.4518 149.42 51.4518ZM145.44 43.5218C145.247 43.4726 145.044 43.5005 144.872 43.5995C144.7 43.6985 144.573 43.8609 144.52 44.0518C144.429 44.3773 144.412 44.7189 144.47 45.0518C144.47 45.2507 144.549 45.4415 144.689 45.5821C144.83 45.7228 145.021 45.8018 145.22 45.8018C145.418 45.8018 145.609 45.7228 145.75 45.5821C145.891 45.4415 145.97 45.2507 145.97 45.0518C145.97 44.3318 146.13 43.7118 145.44 43.5218ZM111.05 141.772C110.24 141.362 94.7495 142.372 94.3595 144.112C94.2795 144.492 94.5295 145.952 94.9695 146.192C95.8395 146.652 110.74 145.812 111.56 144.192C111.793 143.798 111.87 143.331 111.775 142.883C111.681 142.435 111.422 142.038 111.05 141.772ZM95.1595 145.772C94.8512 145.287 94.6849 144.726 94.6795 144.152C94.8795 143.252 103.13 142.762 104.04 142.702C104.018 143.51 104.226 144.307 104.64 145.002C103.5 145.182 95.6995 146.062 95.1595 145.802V145.772ZM110.83 143.772C110.04 144.332 106.03 144.842 105.07 144.962C105.154 144.17 104.986 143.372 104.59 142.682C105.78 142.602 109.59 142.392 110.72 142.492C111.02 142.712 111.03 143.392 110.83 143.792V143.772ZM84.7695 144.142C84.7425 144.125 84.7114 144.116 84.6795 144.116C84.6477 144.116 84.6165 144.125 84.5895 144.142C84.5895 144.042 65.4895 154.802 64.9095 155.942C64.8837 155.997 64.8703 156.056 64.8703 156.117C64.8703 156.177 64.8837 156.237 64.9095 156.292C65.5195 158.042 85.4495 176.062 86.2795 176.472C86.5195 176.592 86.8195 176.382 87.7595 175.882C89.7595 174.812 106.83 165.692 108.59 164.222C109.08 163.722 109.38 159.222 109.11 158.712C108.84 158.202 84.7695 144.242 84.7695 144.142ZM86.4995 175.642C84.3695 173.952 67.4995 158.752 65.6295 156.172C67.3695 154.532 84.1995 144.782 84.7095 144.482C87.2895 146.052 105.86 157.352 108.24 158.952C106.982 159.315 105.785 159.865 104.69 160.582C104.12 161.132 105.54 162.152 107.51 164.062C104.5 166.002 89.5695 174.002 86.4995 175.642ZM108.08 163.492C107.98 163.392 105.57 161.042 105.46 160.952C106.431 160.345 107.432 159.788 108.46 159.282C108.463 160.695 108.329 162.105 108.06 163.492H108.08Z" fill="white"/>
<path fill-rule="evenodd" clip-rule="evenodd" d="M99.7697 161.651C99.0697 161.951 90.5297 164.781 88.1197 165.761C87.4114 166.114 86.6395 166.322 85.8497 166.371C85.7097 166.371 86.5197 164.811 92.6497 160.031C93.2897 159.531 94.5197 158.581 94.6497 157.801C95.2397 155.221 88.2497 159.081 81.9997 161.521C81.3533 161.868 80.6479 162.092 79.9197 162.181C79.8497 161.771 81.2597 160.481 81.3497 160.381C85.0797 156.261 89.8097 154.561 89.4897 153.041C88.9997 150.661 80.3197 155.291 78.4897 156.041C76.9497 156.691 74.4897 157.471 74.6397 157.471C74.3097 157.601 74.6397 157.831 74.6997 157.801C74.7597 157.771 77.9297 156.801 78.6997 156.461C79.8497 156.021 87.5397 152.311 88.8197 153.181C89.3297 153.541 83.8897 156.471 80.8197 159.861C80.2797 160.441 78.8197 161.621 79.2697 162.581C79.3522 162.73 79.4773 162.85 79.6288 162.926C79.7803 163.003 79.9512 163.033 80.1197 163.011C81.6097 163.011 91.7697 157.921 93.8597 157.761C93.38 158.394 92.8067 158.951 92.1597 159.411C90.6697 160.591 86.3497 164.111 85.3497 165.731C84.8297 166.571 85.2597 167.071 85.9397 167.081C86.8397 167.081 87.9397 166.471 90.6497 165.451C99.8397 161.911 100.13 162.071 99.9797 161.741C99.972 161.721 99.9604 161.703 99.9456 161.688C99.9308 161.673 99.9131 161.66 99.8936 161.652C99.874 161.644 99.853 161.639 99.8317 161.639C99.8104 161.639 99.7893 161.643 99.7697 161.651Z" fill="white"/>
<path fill-rule="evenodd" clip-rule="evenodd" d="M195.5 123.521C195.37 113.061 194.43 91.711 192.36 81.361C191.27 75.871 188.91 68.361 184.52 64.731C182.66 63.201 179.92 61.731 174.95 58.981C175.01 58.851 167.1 55.651 166.73 56.711C166.422 54.8872 165.991 53.0863 165.44 51.321C166.18 51.081 165.85 48.921 166.16 47.701C166.47 46.481 167.64 45.611 168.24 44.611C169.59 42.381 169.82 38.491 169.57 35.901C169.33 33.491 165.81 28.111 163.49 27.231C161.17 26.351 158.79 26.381 156.34 25.891C154.34 25.481 152.86 24.371 150.62 24.091C148.38 23.811 147.04 25.091 145.12 25.091C143.2 25.091 141.04 23.601 139.03 23.481C137.938 23.4641 136.876 23.844 136.043 24.5502C135.21 25.2564 134.662 26.2409 134.5 27.321C134.257 28.9309 134.448 30.5763 135.052 32.0879C135.657 33.5994 136.654 34.9226 137.94 35.921C139.505 36.9115 141.265 37.5559 143.1 37.811C142.98 42.921 143.52 41.551 142.92 42.001C142.32 42.451 142.51 45.601 142.72 46.471C142.81 46.821 142.9 46.951 143.33 47.091C143.09 48.091 141.4 50.251 142.92 50.781C143.12 50.851 143.92 50.991 144 51.021C144.204 51.9693 144.506 52.8942 144.9 53.781C145.287 54.6726 145.854 55.4752 146.564 56.1391C147.275 56.803 148.114 57.3142 149.03 57.641C150.47 58.201 151.61 58.351 152.45 58.641C152.565 59.0546 152.626 59.4816 152.63 59.911C149.058 60.8496 145.694 62.447 142.71 64.621C137.3 69.011 129.61 87.221 127.6 89.221C126.82 89.991 108.45 93.551 105.74 95.391C105.21 95.751 105.19 96.061 105.26 96.701C104.6 96.821 101.82 97.341 101.51 97.931C101.418 98.3596 101.442 98.8048 101.58 99.221C99.1051 98.7589 96.6085 98.4252 94.0995 98.221C93.6404 98.2317 93.1887 98.3387 92.7735 98.5351C92.3583 98.7315 91.9891 99.0129 91.6896 99.361C90.8496 100.361 91.5295 100.191 90.6395 100.051C88.7495 99.781 81.9795 102.051 81.1295 102.451C81.1295 102.091 81.1295 101.841 80.7495 101.641C79.6335 101.318 78.4674 101.202 77.3095 101.301C76.6096 101.771 79.3095 101.611 80.4296 102.191C80.4296 102.961 80.5295 110.861 80.4296 112.411C80.4296 112.691 80.4296 112.651 80.2196 112.681C79.2196 112.821 77.7795 112.681 77.3395 113.001C77.4995 109.521 77.3396 101.001 76.8596 100.501C76.5695 100.201 71.2296 99.561 65.4196 98.861C65.4402 94.6574 65.2064 90.4564 64.7196 86.281C63.6496 77.001 61.4096 66.061 54.4096 60.511C54.8152 60.6767 55.2616 60.715 55.6896 60.621C56.2611 60.3942 56.8762 60.2985 57.4896 60.341C58.4896 60.611 58.6196 61.341 61.1196 59.661C61.2796 59.551 61.6996 59.581 62.0296 59.251C63.1596 58.121 62.5896 56.591 62.5896 55.451C62.7551 54.676 62.809 53.8813 62.7496 53.091C62.7189 52.9732 62.6614 52.8641 62.5816 52.7721C62.5018 52.6802 62.4019 52.6079 62.2896 52.561C62.2896 52.231 62.6396 51.641 62.1396 51.001C62.8596 50.621 63.6396 50.181 63.2396 49.401C62.4755 48.1789 61.8452 46.8781 61.3596 45.521C61.0496 44.361 61.4696 42.881 61.4496 41.631C61.4496 40.771 61.5396 39.741 61.4496 38.801C62.2208 38.2625 62.8102 37.5022 63.1396 36.621C63.2125 36.2648 63.1969 35.8962 63.094 35.5474C62.9911 35.1987 62.8042 34.8806 62.5496 34.621C62.2196 34.411 62.1496 34.621 62.1596 34.001C62.1957 33.7834 62.1859 33.5607 62.1308 33.3471C62.0757 33.1336 61.9765 32.9339 61.8396 32.761C61.4196 32.351 60.4596 31.901 60.1596 31.481C59.6496 30.731 59.3496 29.981 58.3896 29.681C57.7096 29.461 57.0696 29.891 56.6096 29.741C55.9796 29.541 55.3296 28.861 54.6096 29.581C54.4488 29.6682 54.2724 29.7228 54.0905 29.7416C53.9086 29.7605 53.7248 29.7433 53.5496 29.691C52.9496 29.181 52.7996 28.301 51.7796 28.111C51.1996 28.011 50.0596 28.291 49.6196 28.111C48.8987 27.5804 48.1035 27.1592 47.2596 26.861C46.3161 26.7712 45.3641 26.8525 44.4496 27.101C43.8096 27.231 42.9896 27.161 42.3196 27.261C40.9296 27.481 40.5296 28.681 39.6096 29.261C38.6896 29.841 37.1396 29.851 36.2596 31.151C35.5196 32.251 35.6796 33.441 35.3896 34.541C35.2696 35.011 34.6296 35.541 34.3896 36.021C33.8296 37.131 34.2596 38.251 34.2496 39.211C34.2396 40.171 33.5696 41.051 33.7596 42.211C33.9139 42.7903 34.1677 43.3385 34.5096 43.831C34.5137 43.9931 34.4935 44.1549 34.4496 44.311C34.1445 45.098 34.0818 45.9582 34.2696 46.781C34.4332 47.5699 34.8142 48.2973 35.3696 48.881C36.0696 49.491 36.4296 49.331 36.9396 50.201C37.154 50.6611 37.4765 51.0624 37.8796 51.371C38.6196 51.871 39.5296 51.441 39.9696 51.661C40.2433 51.8056 40.5418 51.8972 40.8496 51.931C40.6034 52.0554 40.3907 52.2372 40.2296 52.461C34.7896 53.151 27.6096 57.121 23.2296 62.551C21.4996 64.781 18.5896 68.001 17.4996 70.581C11.6396 83.821 14.4996 104.581 12.1396 110.991L6.29955 126.221C6.01955 126.951 5.29955 130.581 5.55955 131.831C5.97955 133.691 7.92955 131.361 9.11955 130.041C8.37955 132.671 8.38955 133.361 7.99955 143.711C7.87955 146.951 7.76955 150.481 7.71955 153.451C7.71669 153.472 7.71843 153.494 7.72468 153.515C7.73092 153.535 7.74151 153.554 7.75574 153.57C7.76996 153.586 7.78749 153.599 7.80713 153.608C7.82676 153.617 7.84805 153.621 7.86955 153.621C8.14955 153.621 7.96955 153.941 8.37955 145.681C8.66955 139.871 8.99955 134.451 9.02955 134.011C9.17758 132.302 9.55427 130.62 10.1496 129.011C12.9422 126.925 16.0848 125.353 19.4296 124.371C23.152 123.375 27.0829 123.476 30.7496 124.661C31.7496 124.991 34.4396 125.661 35.3996 125.211C37.3996 124.211 42.5496 120.901 43.3996 118.891C43.8196 117.891 44.1596 117.081 44.4896 116.331C46.0196 116.471 47.8996 116.861 49.5696 116.881C51.4396 116.881 52.6396 116.581 54.7096 114.751C62.3196 114.921 70.7095 114.691 74.7095 114.541C77.3795 115.541 85.5796 118.471 87.5695 120.441C88.3495 121.201 88.8095 123.321 89.0895 125.681C89.4583 128.502 89.5554 131.352 89.3795 134.191C83.8995 135.241 76.9195 136.901 71.5195 138.241C71.2171 138.157 70.9011 138.133 70.5895 138.171C69.1595 138.321 69.8296 138.901 69.3596 137.451C69.3821 137.456 69.4055 137.456 69.4279 137.45C69.4502 137.444 69.4707 137.433 69.4875 137.417C69.5044 137.401 69.517 137.381 69.5243 137.359C69.5317 137.337 69.5335 137.314 69.5295 137.291C69.5148 135.369 69.2902 133.454 68.8596 131.581C68.7896 131.301 68.2996 131.161 67.9996 131.071C64.7596 130.131 52.2496 128.871 49.4996 129.581C47.7096 130.051 35.3196 136.451 34.7596 137.811C34.1996 139.171 32.6796 147.351 32.3996 148.861C25.9196 150.751 20.8096 152.311 18.3096 153.161C18.2888 153.168 18.2697 153.179 18.2533 153.193C18.2369 153.207 18.2237 153.225 18.2143 153.244C18.2049 153.264 18.1997 153.285 18.1989 153.307C18.1981 153.329 18.2017 153.351 18.2096 153.371C18.3296 153.741 21.6096 152.041 55.2096 143.211C55.5472 144.073 55.9799 144.895 56.4996 145.661C55.4996 145.901 54.3696 146.341 54.0396 147.261C53.9809 147.455 53.9712 147.661 54.0113 147.86C54.0514 148.059 54.1402 148.245 54.2696 148.401C55.0899 149.32 56.1836 149.951 57.3896 150.201C59.504 150.731 61.7012 150.847 63.8596 150.541C65.9321 150.36 67.9743 149.924 69.9396 149.241C72.0796 148.341 71.9396 147.001 71.1196 146.391C70.2745 145.894 69.346 145.555 68.3796 145.391C69.2896 143.741 68.4396 144.471 69.7996 144.141C70.5691 143.957 71.2722 143.563 71.8296 143.001C72.7095 142.101 73.2995 139.881 72.4595 138.811C76.6796 137.811 93.6496 133.611 97.7996 133.921C105.33 134.471 160.08 156.981 173.04 161.321C173.06 161.328 173.081 161.33 173.103 161.328C173.124 161.327 173.145 161.321 173.164 161.311C173.183 161.301 173.2 161.288 173.214 161.272C173.227 161.255 173.238 161.236 173.245 161.216C173.251 161.196 173.254 161.174 173.252 161.153C173.25 161.132 173.244 161.111 173.235 161.092C173.225 161.073 173.211 161.056 173.195 161.042C173.179 161.028 173.16 161.018 173.14 161.011C169.75 159.831 162.19 156.821 153.14 153.201C153.58 152.141 154.74 148.721 155.64 147.541C156.01 147.061 155.99 147.021 159.29 147.211C167.94 147.711 175.56 147.481 183.86 144.831C188.93 143.201 191.42 139.441 192.86 134.411C193.15 134.501 193.94 134.761 194.22 134.821C194.299 134.84 194.383 134.84 194.463 134.821C194.543 134.802 194.617 134.764 194.68 134.711C195.67 133.701 195.5 125.491 195.5 123.521ZM58.7196 54.761C58.4489 54.8596 58.1567 54.8838 57.8736 54.831C57.5904 54.7783 57.3265 54.6505 57.1096 54.461C56.8937 54.2882 56.7247 54.064 56.6181 53.8089C56.5115 53.5538 56.4708 53.276 56.4996 53.001C56.4863 52.9599 56.4899 52.9152 56.5096 52.8768C56.5293 52.8383 56.5634 52.8093 56.6046 52.796C56.6457 52.7828 56.6904 52.7864 56.7288 52.8061C56.7672 52.8257 56.7963 52.8599 56.8096 52.901C57.3033 53.6112 58.0006 54.155 58.8096 54.461C58.8353 54.4823 58.8542 54.5107 58.8639 54.5427C58.8736 54.5747 58.8736 54.6088 58.864 54.6409C58.8544 54.6729 58.8356 54.7013 58.8099 54.7227C58.7842 54.7441 58.7528 54.7574 58.7196 54.761ZM49.3296 46.001C49.3637 45.7072 49.4817 45.4295 49.6696 45.201C49.8896 44.981 50.5596 45.121 51.0296 44.801C51.3811 44.5232 51.6478 44.1526 51.7996 43.731C52.3596 42.621 53.2496 43.481 54.4896 41.651C54.8061 41.1364 55.0516 40.5814 55.2196 40.001C55.9196 39.671 56.8296 40.151 57.7096 38.701C57.9996 38.211 58.1896 37.701 58.7096 37.561C59.0996 37.981 59.4896 39.561 61.0696 38.951C61.0696 39.491 60.9496 42.221 60.9196 42.441C60.7899 43.1001 60.7197 43.7694 60.7096 44.441C60.7096 46.441 61.6296 47.541 62.6496 49.631C62.8096 49.961 61.9696 50.281 61.5496 50.511C60.9571 50.2928 60.3439 50.1353 59.7196 50.041C57.7796 49.571 56.2296 50.581 54.5596 51.041C54.2765 51.0428 53.9943 51.0092 53.7196 50.941C53.0896 50.881 52.4296 51.521 51.5396 51.641C51.3075 51.6866 51.0671 51.6613 50.8496 51.5686C50.6321 51.4759 50.4474 51.32 50.3196 51.121C50.2117 50.7548 50.1348 50.3801 50.0896 50.001C49.9996 49.641 49.8896 49.281 49.8096 48.931C49.6496 48.211 50.1196 47.931 49.5696 46.931C49.1896 46.251 49.1996 46.551 49.3296 46.001ZM49.7096 66.401C50.3829 65.1232 50.9321 63.7837 51.3496 62.401C51.9096 65.881 52.2096 67.641 52.3496 68.521C51.6196 67.911 51.5496 67.681 49.7096 66.361V66.401ZM52.7096 70.471C53.1996 73.471 53.0896 72.791 53.1796 73.411C52.9407 72.961 52.6486 72.5413 52.3096 72.161C52.4215 71.5004 52.4717 70.8309 52.4596 70.161L52.7096 70.471ZM49.0896 72.271C48.4924 71.6501 47.9472 70.9812 47.4596 70.271C47.954 69.1147 48.5115 67.9863 49.1296 66.891C51.2296 68.501 51.0696 68.481 51.5896 69.131C51.6659 69.9826 51.6659 70.8394 51.5896 71.691L49.0896 72.271ZM49.2196 72.921C50.4096 75.571 50.8896 79.921 51.1396 82.821C49.8912 79.1683 48.2127 75.6771 46.1396 72.421C46.545 71.867 46.9061 71.2818 47.2196 70.671C47.6314 71.4381 48.1242 72.1589 48.6896 72.821C48.7618 72.8664 48.8432 72.8954 48.9279 72.9057C49.0126 72.9161 49.0985 72.9077 49.1796 72.881L49.2196 72.921ZM43.2796 51.521C43.3609 51.5463 43.4447 51.5631 43.5296 51.571C43.7624 51.5605 43.9856 51.475 44.1659 51.3272C44.3461 51.1794 44.4737 50.9773 44.5296 50.751C44.6896 50.651 44.8096 50.541 44.7996 50.351C44.7896 50.161 42.6396 47.221 45.3796 45.711C45.6212 45.6848 45.8641 45.7475 46.0629 45.8874C46.2616 46.0272 46.4026 46.2347 46.4596 46.471C46.5889 47.0044 46.8622 47.4921 47.2496 47.881C47.2798 48.5202 47.3635 49.1557 47.4996 49.781C47.5796 50.151 47.2996 50.631 47.2396 51.141C47.0996 52.141 48.0696 53.241 48.4196 54.141C48.8896 55.351 48.5696 56.651 49.6896 57.721C50.8096 58.791 50.5996 57.911 50.9896 60.311C50.523 62.1971 49.8802 64.0352 49.0696 65.801C47.9396 64.201 42.2196 54.861 41.0696 52.731C41.4996 52.471 42.8396 51.711 43.2396 51.481L43.2796 51.521ZM40.2796 52.851C41.0096 54.551 48.2796 66.071 48.2796 66.171C47.9296 67.281 45.9196 71.881 44.9696 72.381C42.8796 70.891 37.1496 55.221 36.7396 53.801C37.8677 53.3177 39.0546 52.9849 40.2696 52.811L40.2796 52.851ZM50.5996 97.001C49.4996 96.651 45.9496 84.601 42.7796 77.931C40.8796 73.931 37.1496 67.321 33.0796 65.561C28.6796 63.671 20.4996 68.201 19.6296 74.081C19.0983 77.9589 19.4122 81.9058 20.5496 85.651C25.2696 99.921 31.6596 111.301 45.3096 114.561C45.6296 113.921 44.4996 114.451 53.4796 114.691C53.0394 115.033 52.5711 115.338 52.0796 115.601C50.3996 116.511 47.2096 115.781 44.8496 115.521L45.1496 114.871C31.0896 111.731 24.5096 99.871 19.7996 85.871C18.61 82.0129 18.2689 77.9433 18.7996 73.941C19.6996 67.581 28.1696 63.021 32.8596 64.601C34.0554 65.0466 35.1501 65.7265 36.0796 66.601C35.6336 62.5939 35.5232 58.5565 35.7496 54.531C35.9333 54.3678 36.1307 54.2206 36.3396 54.091C37.1996 57.091 42.0996 71.431 44.5896 73.021C44.7475 73.1143 44.9324 73.1513 45.114 73.1259C45.2957 73.1005 45.4634 73.0141 45.5896 72.881C47.8396 76.751 49.9396 80.711 50.7796 84.881C51.2548 87.1825 51.3762 89.5429 51.1396 91.881C49.7196 86.001 45.7896 77.501 41.3196 73.431C45.8896 81.321 49.2196 93.941 50.7096 96.431C51.3056 96.5953 51.9144 96.709 52.5296 96.771C52.2696 90.771 52.0696 78.261 49.5296 72.831C49.8396 72.831 52.0296 72.361 52.0296 72.361C52.4245 72.8352 52.7603 73.3557 53.0296 73.911C53.4396 74.701 53.2996 74.101 53.9196 78.301C56.9196 97.691 56.7496 97.591 57.1396 97.801C55.1796 97.551 51.7296 97.341 50.5996 97.001ZM57.2396 93.001C53.3396 70.861 53.2996 70.241 51.6596 61.001C51.7896 60.561 51.8896 60.201 51.9596 59.941C52.5796 60.731 55.9596 65.061 56.3296 66.011C55.7796 66.501 53.7996 67.341 54.3996 68.011C54.6696 68.321 56.8996 70.251 57.5996 70.951C57.9796 72.561 57.3796 90.201 57.2396 93.001ZM32.7996 148.731C33.0796 147.461 34.9096 139.201 35.4196 138.041C35.7896 137.181 47.8496 130.781 49.7496 130.301C52.4896 129.581 67.4095 131.061 68.4496 131.731C68.9191 133.475 69.1941 135.266 69.2696 137.071C67.5896 135.071 54.5896 135.601 54.4496 138.421C54.4468 138.514 54.4662 138.605 54.5062 138.689C54.5463 138.772 54.6057 138.845 54.6796 138.901C54.673 140.11 54.8106 141.315 55.0896 142.491C47.4096 144.561 39.7296 146.721 32.7996 148.731ZM70.9296 147.171C71.4396 148.821 65.4496 149.531 63.7196 149.731C61.6653 150.024 59.574 149.918 57.5596 149.421C56.6796 149.181 55.0496 148.541 54.7396 147.741C54.5896 147.361 55.0796 147.001 55.4396 146.811C55.8957 146.573 56.3793 146.391 56.8796 146.271C57.4243 147.022 58.1549 147.618 58.9996 148.001C59.9996 148.441 64.2696 148.131 65.7496 147.811C66.3996 147.671 67.0896 147.481 68.0696 145.911C68.6696 146.001 70.7596 146.621 70.9296 147.171ZM66.1496 146.821C65.3996 147.271 60.0996 147.631 59.2896 147.301C56.6096 146.231 55.1496 142.051 55.0396 139.101C57.2182 139.58 59.4542 139.745 61.6796 139.591C63.3496 139.371 67.2996 138.691 68.7496 137.961C69.6196 141.241 67.7796 145.871 66.1496 146.821ZM71.7395 141.661C71.4688 142.196 71.0886 142.669 70.6234 143.048C70.1583 143.427 69.6187 143.704 69.0396 143.861C69.5627 142.458 69.8106 140.968 69.7695 139.471C69.8485 139.306 69.9631 139.16 70.1051 139.044C70.2471 138.928 70.413 138.846 70.5909 138.802C70.7687 138.758 70.9541 138.754 71.1337 138.79C71.3133 138.826 71.4826 138.902 71.6295 139.011C72.3795 139.501 72.0495 140.811 71.7395 141.661ZM174.74 59.271C181.5 63.001 184.5 64.561 186.66 67.831C185.301 66.6626 183.572 66.0142 181.78 66.001C175.37 65.781 172.22 75.271 170.58 81.411C167.86 91.651 169.53 104.611 169.38 106.511C167.65 108.121 158.79 112.721 154.83 114.871C155.38 112.551 157.34 103.601 158.62 100.071C160.34 95.331 165.29 84.291 165.62 81.891C165.71 81.181 165.57 81.091 163.47 79.731C164.28 79.731 166.47 79.511 167.15 79.381C167.44 79.381 167.59 79.251 167.7 78.641C168.07 76.521 168.79 59.051 168.85 57.191C168.78 57.151 173.88 58.781 174.77 59.271H174.74ZM167.03 56.881C167.485 56.8482 167.942 56.899 168.38 57.031C167.88 64.281 167.38 77.031 166.91 78.661C166.38 78.761 164.5 78.891 163.77 78.941C162.21 79.031 162.17 78.941 162.01 79.161C161.85 79.381 162.07 79.681 162.36 79.881C162.87 80.241 164.57 81.311 164.81 81.591C164.579 82.7816 164.223 83.9447 163.75 85.061C158.1 100.061 158.44 95.451 154.64 111.901C154.893 104.021 155.621 96.1635 156.82 88.371C157.62 84.081 158.59 80.051 161.82 70.871C163.09 67.321 165.72 60.521 165.82 60.561C166.321 59.3659 166.736 58.136 167.06 56.881H167.03ZM149.66 118.251C149.85 118.991 149.85 118.891 149.79 118.901L149.48 118.841C149.48 118.741 148.94 108.701 149.2 104.551C149.67 97.201 150.27 89.231 150.83 81.551C151.1 77.831 152.12 69.841 152.09 70.141L153.09 69.401C153.504 70.2289 153.976 71.0274 154.5 71.791C154.7 72.061 154.97 72.401 155.29 72.431C155.07 74.241 151.74 96.571 150.76 110.841C150.22 118.611 150.76 116.961 149.97 117.671C149.876 117.734 149.8 117.821 149.751 117.923C149.702 118.025 149.681 118.138 149.69 118.251H149.66ZM155.6 72.441C156.36 72.441 157.18 70.841 158.18 70.161C158.57 70.571 159.75 72.531 160.53 72.791C157.22 81.871 153.68 94.531 153.69 115.431C152.84 115.891 151.69 116.551 150.84 117.041C151.34 108.531 154.96 80.601 155.63 72.441H155.6ZM166.1 59.001C165.78 60.001 161.03 71.471 160.7 72.001C160.184 71.4954 159.725 70.9355 159.33 70.331C158.49 69.201 158.2 68.831 156.77 70.441C158.89 66.441 163.03 62.381 164.77 60.361C166.43 58.461 166.21 58.621 166.1 59.001ZM143.7 38.001C144.446 38.2308 145.244 38.2308 145.99 38.001C146.56 37.7473 147.191 37.6573 147.81 37.741C148.683 38.1439 149.582 38.4912 150.5 38.781C151.635 38.771 152.767 38.6808 153.89 38.511C154.404 38.7513 154.839 39.1325 155.146 39.6105C155.452 40.0884 155.616 40.6434 155.62 41.211C153.756 41.4816 151.957 42.0881 150.31 43.001C150.208 42.6727 150.008 42.3838 149.736 42.1742C149.463 41.9647 149.133 41.8448 148.79 41.831C147.15 41.6337 145.494 41.6136 143.85 41.771C143.704 40.4932 143.654 39.2063 143.7 37.921V38.001ZM143.31 46.531C143.06 46.091 142.57 42.681 143.07 42.311C143.15 42.411 142.8 42.101 144.7 42.121C146.039 42.1633 147.374 42.2835 148.7 42.481C149.6 42.641 149.75 43.051 149.7 43.921C149.7 45.531 149.75 45.371 149.7 45.871C149.7 46.011 149.64 46.381 149.53 46.461C147.473 46.8333 145.365 46.8299 143.31 46.451V46.531ZM152.5 57.801C149.76 57.021 147.25 56.921 145.56 53.441C144.47 51.201 145.07 50.551 144.08 50.261C143.712 50.2172 143.351 50.1368 143 50.021C143 49.351 143.84 47.951 144 47.241C145.66 47.4396 147.339 47.4396 149 47.241C150 47.091 150.53 46.921 150.37 44.891V43.341C151.94 42.861 155.27 42.071 155.67 41.961C155.672 42.505 155.746 43.0463 155.89 43.571C156.046 43.9009 156.316 44.1636 156.65 44.311C156.703 44.3348 156.761 44.3459 156.82 44.3434C156.878 44.341 156.935 44.3252 156.986 44.2971C157.038 44.2691 157.082 44.2296 157.115 44.1817C157.149 44.1338 157.171 44.0788 157.18 44.021C157.41 43.091 157.59 42.261 157.66 41.861C157.66 42.081 157.75 41.161 158.41 40.801C159.41 40.281 160.96 41.441 161.07 43.081C161.13 43.881 160.33 45.331 159.73 47.001C159.37 48.001 161.55 48.431 162.31 48.801C162.59 49.451 162.42 50.181 162.8 50.571C163.37 50.9226 163.995 51.1761 164.65 51.321C165.339 53.5314 165.841 55.7961 166.15 58.091C163.61 60.761 163.04 61.401 162.36 62.091C159.703 64.6153 157.45 67.5326 155.68 70.741C154.97 66.571 153.62 62.891 153.47 61.681C153.35 60.741 153.55 59.081 153.11 58.191C153.043 58.0851 152.954 57.9952 152.848 57.9278C152.743 57.8604 152.624 57.8171 152.5 57.801ZM152.79 61.191C153.27 62.971 154.55 68.751 154.92 71.071C154.31 70.151 153.56 68.631 153.56 68.631C153.534 68.5768 153.496 68.5291 153.449 68.4915C153.402 68.4539 153.347 68.4274 153.288 68.414C153.23 68.4005 153.169 68.4005 153.11 68.4138C153.051 68.4271 152.997 68.4535 152.95 68.491L152.22 69.051C152.5 66.451 152.78 63.801 152.82 61.191H152.79ZM152.5 60.301C152.41 67.661 150.94 74.221 150.34 81.551C148.34 106.191 148.34 104.981 148.54 113.701C147.46 105.821 145.95 90.491 145.12 82.181C145.71 81.731 148.56 79.561 148.88 78.901C149.03 78.581 148.88 78.251 148.16 78.251C146.908 78.3454 145.651 78.3454 144.4 78.251C145.16 75.151 149.51 63.841 150.67 60.841C151.26 60.671 151.75 60.501 152.5 60.301ZM106.01 96.141C107.56 94.511 127.01 90.711 128.07 89.681C129.56 88.181 133.66 78.871 137.84 71.811C141.39 65.811 143.32 63.591 150.23 61.041C148.57 65.151 145.33 73.191 143.87 77.871C143.78 78.161 143.65 78.481 143.87 78.671C144.42 79.211 146.72 78.891 148.04 78.911C147.11 79.841 144.55 81.731 144.55 81.731C144.5 81.7674 144.461 81.8161 144.437 81.8723C144.412 81.9285 144.403 81.9901 144.41 82.051C144.83 86.691 147.41 114.381 148.53 118.401L146.73 117.941C145.566 117.37 144.303 117.03 143.01 116.941C145.29 105.601 144.47 102.431 144.75 96.251C144.75 95.611 142.05 82.751 142.03 82.651C142.03 82.6086 142.013 82.5679 141.983 82.5379C141.953 82.5079 141.912 82.491 141.87 82.491C141.827 82.491 141.786 82.5079 141.756 82.5379C141.726 82.5679 141.71 82.6086 141.71 82.651C141.88 87.031 143.12 91.201 143.97 95.981C140.77 98.981 137.42 103.131 131.97 104.481C128.6 105.331 112.82 108.771 110.72 108.921C109 107.001 105.74 97.421 106.01 96.141ZM104.11 97.471C104.11 97.471 105.31 97.181 105.29 96.991C106.223 100.505 107.4 103.95 108.81 107.301C107.9 107.582 106.971 107.793 106.03 107.931C105.46 107.931 105.86 108.431 104.47 105.131C103.613 103.079 102.878 100.979 102.27 98.841C102.1 98.151 101.81 98.221 104.11 97.471ZM92.3996 99.581C93.1896 98.711 93.7596 98.581 101.66 99.581C102.362 101.965 103.214 104.303 104.21 106.581C102.584 107.848 100.72 108.777 98.7296 109.311C98.6696 108.881 98.5296 109.011 98.8696 109.041C99.1567 109.049 99.4421 108.993 99.7045 108.876C99.967 108.759 100.2 108.585 100.386 108.366C100.572 108.147 100.707 107.889 100.78 107.612C100.854 107.334 100.864 107.043 100.81 106.761C100.73 105.761 97.8695 103.681 97.0595 103.111C97.5404 103.21 98.0393 103.172 98.4995 103.001C98.5407 102.988 98.5748 102.959 98.5945 102.92C98.6142 102.882 98.6178 102.837 98.6046 102.796C98.5913 102.755 98.5622 102.721 98.5238 102.701C98.4854 102.681 98.4407 102.678 98.3996 102.691C96.7196 103.131 95.0196 101.131 94.7996 101.071C94.0296 100.881 94.5096 102.671 92.7996 103.741C92.5496 103.901 91.5895 103.541 91.5295 103.051C91.4037 102.444 91.4165 101.817 91.5672 101.216C91.7179 100.616 92.0024 100.056 92.3996 99.581ZM81.2196 102.731C82.4995 102.271 89.0196 100.251 90.8996 100.731C90.688 101.53 90.6403 102.363 90.7596 103.181C90.8231 103.441 90.9419 103.684 91.1079 103.893C91.2738 104.103 91.4831 104.275 91.7213 104.396C91.9595 104.518 92.2212 104.586 92.4883 104.597C92.7555 104.609 93.022 104.562 93.2695 104.461C93.9665 103.996 94.4903 103.314 94.7596 102.521C95.6496 103.061 100.07 105.991 100.01 107.031C100.01 107.731 99.6395 108.321 98.9396 108.261C98.3486 108.049 97.7899 107.756 97.2795 107.391C96.766 106.981 96.2247 106.607 95.6596 106.271C95.5697 106.224 95.4658 106.213 95.3678 106.238C95.2698 106.263 95.1846 106.324 95.1287 106.409C95.0729 106.493 95.0502 106.595 95.0651 106.695C95.08 106.795 95.1315 106.887 95.2095 106.951C95.2095 106.951 95.9595 107.511 96.7896 108.051C98.0396 109.051 98.4696 109.971 96.9195 110.441C96.6769 110.513 96.422 110.534 96.1708 110.503C95.9196 110.472 95.6774 110.39 95.4595 110.261C95.2047 109.758 94.8666 109.301 94.4595 108.911C94.2779 108.444 93.9522 108.047 93.5297 107.777C93.1072 107.507 92.6098 107.379 92.1096 107.411C91.5896 107.471 91.5495 107.731 91.5995 107.491C91.8395 106.301 90.3195 105.581 89.2596 105.781C87.5496 106.121 86.5995 108.381 86.0396 110.031C85.6996 110.751 87.0396 109.951 81.1896 112.031C81.3544 109.127 81.3544 106.215 81.1896 103.311C81.1395 102.621 81.1196 102.781 81.2196 102.731ZM86.3195 110.141C86.8696 108.961 88.0796 106.751 89.3696 106.551C89.8696 106.461 90.8795 106.801 90.7695 107.311C90.553 108.665 89.9286 109.921 88.9796 110.911C89.0996 111.111 85.9696 111.171 86.3195 110.141ZM91.9796 108.231C92.2196 107.991 93.6196 108.481 93.6596 109.231C93.7296 110.481 92.5396 111.971 91.5096 112.661C91.1796 112.891 89.8796 111.831 89.5796 111.401C90.2938 110.282 91.0964 109.222 91.9796 108.231ZM93.6695 111.561C93.7395 111.461 94.7396 109.241 94.9096 111.081C94.9796 111.801 93.9095 112.181 93.2095 112.081C93.3722 111.916 93.5258 111.743 93.6695 111.561ZM115.91 124.561C111.7 127.831 111.1 132.131 111.79 137.261C105.03 134.861 99.8696 133.261 97.8596 133.091C95.1391 133.147 92.4316 133.482 89.7795 134.091C90.0495 131.401 89.9296 121.961 88.0195 120.021C86.1095 118.081 79.1796 115.431 76.5695 114.431H77.1596C77.3896 114.311 77.0095 113.261 77.8795 113.201C78.9296 113.141 80.3995 113.541 80.8795 113.121C81.0229 112.903 81.1057 112.651 81.1196 112.391C82.2196 112.041 84.8096 111.251 86.1196 110.911C86.56 111.261 87.0755 111.503 87.6256 111.619C88.1758 111.736 88.7454 111.722 89.2896 111.581C89.5896 112.251 90.9895 113.721 91.8596 113.241C92.1009 113.102 92.3315 112.945 92.5496 112.771C93.1821 112.946 93.8538 112.918 94.4696 112.691C94.7954 112.602 95.0861 112.416 95.3025 112.156C95.5189 111.897 95.6505 111.577 95.6796 111.241C96.2031 111.391 96.7614 111.367 97.2701 111.173C97.7788 110.978 98.2104 110.623 98.4995 110.161C100.692 109.668 102.744 108.683 104.5 107.281C104.69 107.691 104.87 108.041 105.02 108.281C105.069 108.365 105.139 108.436 105.223 108.487C105.307 108.537 105.402 108.566 105.5 108.571C106.5 108.671 108.86 107.571 108.96 107.571C109.302 108.286 109.728 108.957 110.23 109.571C110.41 109.751 110.71 109.701 110.99 109.671C113.89 109.321 128.29 106.221 132.14 105.261C137.14 104.011 140.4 100.501 143.83 97.161C143.64 102.901 144.39 105.701 142.12 116.971C137.399 117.558 132.723 118.453 128.12 119.651C124.09 120.801 119.29 121.941 115.91 124.571V124.561ZM130.5 144.291L130.15 144.151C130.07 139.071 131.33 134.391 135.05 130.921C135.379 131.005 135.713 131.068 136.05 131.111C132.22 134.391 130.71 139.171 130.5 144.291ZM146.29 127.621C143.29 129.381 144.17 130.331 141.42 130.621C139.216 130.772 137.003 130.601 134.85 130.111C133.11 129.551 134.03 128.881 135.85 128.681C136.16 128.731 138.6 128.751 139.75 128.681C139.844 128.666 139.929 128.618 139.991 128.546C140.053 128.473 140.087 128.381 140.087 128.286C140.087 128.191 140.053 128.099 139.991 128.026C139.929 127.954 139.844 127.906 139.75 127.891C138.453 127.779 137.149 127.759 135.85 127.831C135.022 127.819 134.197 127.722 133.39 127.541C133.309 127.41 133.262 127.261 133.254 127.107C133.245 126.954 133.274 126.8 133.34 126.661C134.39 126.031 139.34 126.271 140.16 126.241C140.256 126.226 140.344 126.177 140.407 126.102C140.471 126.028 140.506 125.934 140.506 125.836C140.506 125.738 140.471 125.644 140.407 125.57C140.344 125.495 140.256 125.446 140.16 125.431C138.519 125.466 136.878 125.379 135.25 125.171C134.55 125.051 132.92 124.701 133.04 123.991C133.26 122.711 135.89 123.811 137.74 123.681C139.045 123.661 140.337 123.418 141.56 122.961C141.651 122.933 141.728 122.87 141.773 122.786C141.818 122.701 141.827 122.603 141.8 122.511C141.772 122.42 141.709 122.343 141.624 122.298C141.54 122.253 141.441 122.243 141.35 122.271C140.098 122.572 138.829 122.792 137.55 122.931C137.468 122.914 137.396 122.868 137.346 122.802C137.297 122.736 137.273 122.654 137.28 122.571C137.294 122.384 137.341 122.201 137.42 122.031C137.935 121.359 138.628 120.843 139.42 120.541C142.26 119.361 144.42 120.541 147.67 120.751C148.077 122.6 148.595 124.423 149.22 126.211C148.223 126.609 147.257 127.081 146.33 127.621H146.29ZM150.11 126.401C149.76 125.221 148.46 120.941 148.33 119.941C148.846 119.689 149.389 119.498 149.95 119.371C150.41 121.081 151.26 124.051 151.81 125.711C151.273 125.979 150.718 126.21 150.15 126.401H150.11ZM152.94 126.401C152.41 125.201 150.84 119.611 150.48 118.211C152.2 116.801 167.64 109.211 169.94 106.901C170.66 106.181 168.23 92.631 171.08 81.481C172.6 75.481 175.58 66.051 181.73 66.261C185.95 66.401 188.36 69.621 189.73 73.641C192.24 81.041 191.24 91.311 191.24 91.211C191.24 99.601 188.24 112.211 182.24 118.211C177.71 122.751 155.76 126.911 152.98 126.431L152.94 126.401ZM194.17 134.001C193 133.691 187.63 131.711 185.36 131.521C173.57 130.521 174.3 128.281 167.01 125.081C171.01 124.081 179.9 121.761 182.85 118.841C189.08 112.661 191.96 99.921 191.93 91.301C192.161 88.2821 192.161 85.2499 191.93 82.231C194.14 94.771 195.5 130.201 194.17 134.001Z" fill="white"/>
<path fill-rule="evenodd" clip-rule="evenodd" d="M39.5495 66.4013L36.2695 66.7813C37.2695 67.7217 38.18 68.7528 38.9895 69.8613L39.8995 66.8613C39.9273 66.8076 39.9392 66.747 39.934 66.6868C39.9287 66.6265 39.9065 66.5689 39.8699 66.5208C39.8332 66.4726 39.7837 66.4358 39.727 66.4147C39.6703 66.3936 39.6088 66.3889 39.5495 66.4013ZM134.41 157.661C133.585 157.139 132.674 156.767 131.72 156.561C133.99 152.871 133.58 148.561 132.98 148.181C132.415 147.606 131.663 147.251 130.86 147.181C127.86 146.551 120.59 146.501 118.67 148.101C118.25 148.451 118 149.021 118.41 149.401C118.214 151.772 118.711 154.148 119.84 156.241C118.84 156.431 117.68 156.811 117.3 157.711C117.234 157.905 117.216 158.111 117.247 158.313C117.279 158.515 117.358 158.707 117.48 158.871C118.247 159.823 119.298 160.506 120.48 160.821C122.567 161.456 124.756 161.684 126.93 161.491C129.006 161.407 131.064 161.071 133.06 160.491C135.27 159.671 135.25 158.321 134.41 157.661ZM118.76 149.581C120.909 150.168 123.132 150.445 125.36 150.401C127.789 150.235 130.187 149.765 132.5 149.001C132.7 150.377 132.626 151.779 132.283 153.126C131.94 154.473 131.334 155.739 130.5 156.851C130.298 157.205 130.007 157.499 129.656 157.704C129.305 157.909 128.906 158.019 128.5 158.021C127.1 158.201 123.28 158.301 122.5 157.951C119.97 156.781 118.72 152.531 118.76 149.581ZM126.89 160.581C124.825 160.777 122.743 160.566 120.76 159.961C119.862 159.717 119.035 159.261 118.35 158.631C118.19 158.461 117.93 158.121 118.01 157.911C118.27 157.251 119.54 156.911 120.24 156.791C120.741 157.556 121.429 158.179 122.24 158.601C123.24 159.111 128.78 159.051 129.81 158.521C130.452 158.129 130.995 157.596 131.4 156.961C131.99 157.131 134.05 157.831 134.19 158.391C134.64 160.111 128.69 160.521 126.89 160.631V160.581Z" fill="white"/>
</svg>
