<svg width="201" height="200" viewBox="0 0 201 200" fill="none" xmlns="http://www.w3.org/2000/svg">
<path d="M96.67 94.6401C97.0358 94.7518 97.4302 94.7214 97.7746 94.5552C98.1191 94.3889 98.3881 94.0989 98.5282 93.743C98.6683 93.3872 98.6691 92.9916 98.5304 92.6352C98.3917 92.2787 98.1238 91.9877 97.78 91.8201C97.4705 91.6983 97.1363 91.653 96.8056 91.6878C96.4748 91.7226 96.1574 91.8366 95.88 92.0201C95.6698 92.2134 95.5182 92.4621 95.4428 92.7376C95.3674 93.0131 95.3711 93.3043 95.4536 93.5778C95.536 93.8513 95.6939 94.096 95.909 94.2839C96.1242 94.4717 96.3879 94.5952 96.67 94.6401ZM96.1 93.1001C96.1 92.2601 97.77 92.1601 97.93 93.1001C98.24 94.4101 96.05 94.3301 96.1 93.1001ZM95.5 30.6401C93.96 32.4501 94.33 34.7801 96.75 35.9201C97.2976 35.7789 97.8563 35.6852 98.42 35.6401C99.0625 35.6823 99.701 35.7725 100.33 35.9101C100.997 35.5091 101.516 34.9022 101.808 34.1807C102.1 33.4592 102.15 32.6623 101.95 31.9101C101.764 31.2559 101.4 30.6659 100.9 30.2053C100.399 29.7447 99.7813 29.4314 99.1139 29.3C98.4465 29.1686 97.7558 29.2242 97.1181 29.4607C96.4803 29.6972 95.9204 30.1053 95.5 30.6401ZM94.94 48.0001C94.9283 47.9411 94.8965 47.888 94.85 47.8498C94.8035 47.8117 94.7452 47.7908 94.685 47.7908C94.6249 47.7908 94.5666 47.8117 94.5201 47.8498C94.4736 47.888 94.4418 47.9411 94.43 48.0001C94.3557 48.5573 94.3123 49.1181 94.3 49.6801C94.3263 49.7601 94.3772 49.8298 94.4455 49.8792C94.5137 49.9286 94.5958 49.9552 94.68 49.9552C94.7643 49.9552 94.8463 49.9286 94.9146 49.8792C94.9828 49.8298 95.0337 49.7601 95.06 49.6801C95.11 49.5101 94.94 48.1701 94.94 48.0001ZM102.83 48.1801C102.818 48.1211 102.786 48.068 102.74 48.0298C102.693 47.9917 102.635 47.9708 102.575 47.9708C102.515 47.9708 102.457 47.9917 102.41 48.0298C102.364 48.068 102.332 48.1211 102.32 48.1801C102.32 48.3201 102.15 49.6701 102.2 49.8601C102.226 49.9401 102.277 50.0098 102.345 50.0592C102.414 50.1086 102.496 50.1352 102.58 50.1352C102.664 50.1352 102.746 50.1086 102.815 50.0592C102.883 50.0098 102.934 49.9401 102.96 49.8601C103.01 49.6701 102.83 48.3301 102.83 48.1801ZM95.01 44.7101C93.81 44.6101 93.26 46.4701 93.24 46.5501C93.2228 46.6071 93.2289 46.6686 93.257 46.7212C93.2852 46.7737 93.333 46.8128 93.39 46.8301C93.447 46.8473 93.5086 46.8412 93.5611 46.8131C93.6136 46.7849 93.6528 46.7371 93.67 46.6801C93.73 46.5301 94.37 45.4401 95.12 45.4801C95.5 45.5101 95.69 44.7601 95.01 44.7101ZM103.13 46.8201C103.112 46.4677 102.986 46.1294 102.769 45.8505C102.553 45.5717 102.257 45.3657 101.92 45.2601C101.819 45.2336 101.712 45.2482 101.622 45.3007C101.532 45.3532 101.467 45.4393 101.44 45.5401C101.414 45.6409 101.428 45.7481 101.481 45.8381C101.533 45.9281 101.619 45.9936 101.72 46.0201C101.966 46.1075 102.186 46.2547 102.361 46.4485C102.535 46.6423 102.659 46.8766 102.72 47.1301C102.736 47.1845 102.773 47.2303 102.822 47.2575C102.872 47.2847 102.931 47.291 102.985 47.2751C103.039 47.2592 103.085 47.2223 103.112 47.1726C103.14 47.1229 103.146 47.0645 103.13 47.0101C103.13 47.0101 103.15 46.9001 103.13 46.8201ZM98.5 52.1301C98.54 52.1169 98.5749 52.0915 98.5996 52.0574C98.6243 52.0233 98.6376 51.9822 98.6376 51.9401C98.6376 51.898 98.6243 51.8569 98.5996 51.8228C98.5749 51.7887 98.54 51.7632 98.5 51.7501C98.04 51.6601 97.5 51.6301 97.5 51.1801C97.5528 50.6187 97.6397 50.061 97.76 49.5101C97.7656 49.4604 97.7532 49.4103 97.7252 49.3689C97.6971 49.3275 97.6552 49.2975 97.607 49.2842C97.5588 49.271 97.5074 49.2753 97.4621 49.2966C97.4169 49.3178 97.3806 49.3545 97.36 49.4001C97.1113 50.0448 96.9368 50.7158 96.84 51.4001C96.86 52.0001 97.5 52.4501 98.5 52.1301ZM99.75 53.4401C99.5299 53.6783 99.2597 53.8647 98.9587 53.9858C98.6578 54.1068 98.3338 54.1595 98.01 54.1401C97.7881 54.1029 97.5765 54.0196 97.3887 53.8956C97.201 53.7716 97.0413 53.6096 96.92 53.4201C96.8922 53.3684 96.8449 53.3298 96.7887 53.313C96.7324 53.2961 96.6717 53.3022 96.62 53.3301C96.5683 53.3579 96.5298 53.4052 96.5129 53.4614C96.496 53.5177 96.5022 53.5784 96.53 53.6301C96.69 53.9768 96.9406 54.2739 97.2554 54.49C97.5702 54.706 97.9375 54.833 98.3186 54.8576C98.6996 54.8822 99.0802 54.8034 99.4202 54.6296C99.7601 54.4558 100.047 54.1934 100.25 53.8701C100.38 53.5401 100.02 53.2001 99.75 53.4401ZM99.64 112.86C99.665 112.877 99.6947 112.886 99.725 112.886C99.7554 112.886 99.785 112.877 99.81 112.86C100.88 112.19 108.93 105.79 109.59 105.22C109.612 105.2 109.627 105.173 109.634 105.144C109.641 105.115 109.639 105.084 109.628 105.056C109.617 105.028 109.598 105.004 109.574 104.987C109.549 104.97 109.52 104.96 109.49 104.96C109.49 104.96 92.99 104.64 90.08 104.54C89.91 104.54 89.88 104.72 89.97 104.8C90.5 105.32 96.89 110.75 99.64 112.86ZM134.4 189.89C135.15 188.36 133.75 185.79 133.12 184.75C133.108 184.725 133.089 184.703 133.065 184.688C133.041 184.673 133.013 184.665 132.985 184.665C132.957 184.665 132.929 184.673 132.905 184.688C132.881 184.703 132.862 184.725 132.85 184.75C132.34 185.75 131.27 188.37 132.29 189.88C132.98 191 133.86 191.08 134.4 189.89ZM73.5 179.14C73.4 179.2 66.08 183.41 65.8 183.84C65.52 184.27 65.53 184.59 65.91 184.62C68.91 184.81 70.06 185.06 70.18 185.2C70.37 185.87 70.58 188.59 70.98 189.13C71.0226 189.197 71.0836 189.25 71.1556 189.282C71.2275 189.315 71.3074 189.326 71.3856 189.315C71.4638 189.303 71.537 189.269 71.5963 189.217C71.6557 189.164 71.6986 189.096 71.72 189.02C72.14 187.44 73.46 182.52 73.72 181.71C73.98 180.9 74.42 178.81 73.5 179.14ZM73.36 180.08C73.26 180.74 72.78 182.65 71.36 187.53C71.2426 186.512 71.0283 185.507 70.72 184.53C69.5233 184.172 68.2876 183.961 67.04 183.9C69.1 182.62 71.26 181.39 73.33 180.08H73.36ZM78.67 183.27C78.7523 183.262 78.8293 183.227 78.8883 183.169C78.9473 183.111 78.9846 183.035 78.994 182.953C79.0034 182.87 78.9843 182.788 78.9398 182.718C78.8954 182.648 78.8284 182.596 78.75 182.57C78.3801 182.462 77.9951 182.415 77.61 182.43V180.98C77.61 180.911 77.5826 180.845 77.5339 180.796C77.4851 180.747 77.419 180.72 77.35 180.72C77.2811 180.72 77.2149 180.747 77.1662 180.796C77.1174 180.845 77.09 180.911 77.09 180.98C77.09 181.5 77 181.98 76.96 182.47C76.49 182.47 76.02 182.56 75.53 182.63C75.04 182.7 75.25 183.26 75.61 183.23C76.033 183.205 76.4571 183.205 76.88 183.23C76.88 183.67 76.79 184.14 76.77 184.59C76.7858 184.694 76.8384 184.789 76.9182 184.858C76.998 184.926 77.0998 184.964 77.205 184.964C77.3103 184.964 77.412 184.926 77.4918 184.858C77.5716 184.789 77.6242 184.694 77.64 184.59V183.26C77.9828 183.286 78.3268 183.289 78.67 183.27ZM102.76 177.8C102.674 177.548 102.515 177.328 102.303 177.168C102.091 177.007 101.836 176.914 101.57 176.9C100.65 176.9 99.79 178.03 99.06 179.08H98.99C98.28 178.58 98.06 178.58 97.4 179.28C96.52 180.23 96.89 180.4 98.03 181.28C97.26 182.35 95.32 185.11 95.03 185.61C94.74 186.11 93.89 187.52 94.83 188.3C95.023 188.438 95.2564 188.508 95.4936 188.499C95.7307 188.49 95.9581 188.403 96.14 188.25C97.5925 186.489 98.9286 184.635 100.14 182.7C101.14 183.3 101.22 183.42 102 182.78C102.113 182.706 102.208 182.607 102.277 182.491C102.347 182.375 102.389 182.245 102.4 182.11C102.4 181.62 101.81 181.28 101.4 180.95C101.75 180.44 102.06 179.95 102.34 179.44C102.526 179.214 102.66 178.95 102.732 178.667C102.805 178.383 102.814 178.088 102.76 177.8ZM99.6 179.45C99.9311 179.002 100.285 178.572 100.66 178.16C101.15 177.63 101.51 177.5 101.84 177.73C102.4 178.1 102.09 178.43 100.94 180.52L99.6 179.45ZM95.35 187.79C94.78 187.66 95.15 186.79 95.42 186.27C95.69 185.75 97.72 182.81 98.5 181.62C98.81 181.84 99.33 182.18 99.58 182.33C98.9 183.49 96.97 186.33 96.58 186.77C96.19 187.21 95.83 187.9 95.35 187.79ZM98.2 179.31L98.36 179.37C98.52 179.43 101.78 182.09 101.78 182.15C101.635 182.366 101.443 182.547 101.22 182.68C100.84 182.38 98.48 180.78 97.6 180.09C97.7833 179.818 97.9837 179.557 98.2 179.31ZM120.26 184.3C120.26 184.3 124.8 189.17 125.2 189.3C125.87 189.48 129.49 185.3 129.97 184.74C130.44 185.14 130.68 185.21 131.21 184.68C131.538 184.337 131.811 183.946 132.02 183.52C132.055 183.454 132.068 183.379 132.057 183.305C132.046 183.232 132.012 183.163 131.96 183.11C126.87 177.95 125.96 176.99 125.75 176.91C125.09 176.63 124.75 177.44 124.36 177.73C123.82 178.25 123.53 178.41 124.42 179.41C120.36 183.81 120.04 183.78 120.26 184.3ZM124.54 178.43C124.806 178.123 125.105 177.844 125.43 177.6C125.43 177.6 128.43 180.6 131.27 183.4C131.088 183.739 130.867 184.054 130.61 184.34C130.5 184.23 124.7 178.6 124.5 178.43H124.54ZM129.54 184.28C125.18 188.9 125.62 188.72 125.16 188.28C124.89 188.05 121.54 184.6 121.03 184.01C121.39 183.61 124.71 180.01 124.93 179.81C124.88 179.85 128.82 183.66 129.5 184.28H129.54Z" fill="white"/>
<path d="M124.259 182.171C123.259 183.231 122.479 183.541 122.589 184.111C123.078 184.834 123.641 185.505 124.269 186.111C124.308 186.142 124.356 186.159 124.405 186.16C124.455 186.161 124.503 186.145 124.542 186.115C124.581 186.085 124.609 186.042 124.622 185.994C124.634 185.946 124.63 185.896 124.609 185.851C124.609 185.851 123.819 184.501 123.479 184.051C123.559 183.951 124.409 182.811 124.639 182.551C124.69 182.5 124.718 182.432 124.718 182.361C124.718 182.289 124.69 182.221 124.639 182.171C124.589 182.12 124.521 182.092 124.449 182.092C124.378 182.092 124.31 182.12 124.259 182.171Z" fill="white"/>
<path d="M139.02 194.44L114.5 194.28C114.5 192.57 113.95 178.37 113.91 177.16C113.91 176.79 113.32 176.79 113.34 177.16C113.34 178.16 113.7 193.34 113.75 194.27H87.0597C87.0597 192.65 86.7997 179.94 86.7797 179.07C86.7797 178.998 86.7512 178.93 86.7006 178.879C86.65 178.828 86.5813 178.8 86.5097 178.8C86.4381 178.8 86.3694 178.828 86.3188 178.879C86.2681 178.93 86.2397 178.998 86.2397 179.07V194.27C84.1597 194.27 62.2397 194.27 59.2397 194.49C59.1757 194.502 59.118 194.536 59.0765 194.587C59.0351 194.637 59.0124 194.7 59.0124 194.765C59.0124 194.83 59.0351 194.893 59.0765 194.943C59.118 194.994 59.1757 195.028 59.2397 195.04C61.9097 195.16 136.62 195.3 139.07 194.73C139.102 194.718 139.129 194.694 139.146 194.664C139.164 194.634 139.17 194.599 139.164 194.564C139.158 194.53 139.14 194.499 139.114 194.476C139.088 194.454 139.054 194.441 139.02 194.44ZM67.0997 14C67.3297 14.4 69.6697 14.53 69.8797 14.45C70.0177 14.4016 70.1368 14.3105 70.2197 14.19C71.0129 14.8516 71.8443 15.466 72.7097 16.03C72.8331 16.1298 72.9761 16.2027 73.1293 16.244C73.2826 16.2853 73.4428 16.2942 73.5997 16.27C74.0197 16.15 81.9097 11.45 82.0297 11.37C82.5497 11.05 82.5597 10.73 82.4897 10.52C82.3397 10.11 74.2797 6.33001 72.9897 4.92001C72.9523 4.89295 72.9099 4.87355 72.865 4.86292C72.8201 4.8523 72.7736 4.85065 72.728 4.85809C72.6825 4.86552 72.6389 4.88189 72.5997 4.90625C72.5605 4.9306 72.5265 4.96247 72.4997 5.00001C71.4997 6.15001 70.6097 7.33001 69.6997 8.50001C68.7834 8.47178 67.8678 8.57277 66.9797 8.80001C66.8817 10.5338 66.9218 12.2726 67.0997 14ZM73.9697 11C73.8677 11.2793 73.6737 11.5156 73.4197 11.67C72.9197 11.84 72.4197 11.37 72.2497 11.16C71.6997 10.52 72.9497 9.16001 73.7797 10.23C73.8834 10.3383 73.9558 10.4727 73.9892 10.6188C74.0227 10.7649 74.0159 10.9174 73.9697 11.06V11ZM73.2497 9.15001C72.9504 9.09743 72.6424 9.12903 72.36 9.24128C72.0776 9.35354 71.832 9.54204 71.6505 9.78575C71.469 10.0295 71.3588 10.3188 71.3322 10.6215C71.3056 10.9242 71.3635 11.2283 71.4997 11.5C71.7038 11.8359 72.0024 12.1041 72.3581 12.2713C72.7138 12.4385 73.1108 12.4972 73.4997 12.44C73.7682 12.3421 74.0068 12.1764 74.1925 11.9592C74.3782 11.742 74.5047 11.4805 74.5597 11.2C75.6597 11.2 79.4397 11.2 80.9497 11.13L73.4997 15.47C73.0797 15.29 70.6197 13.47 70.3197 13.23C70.3197 12.68 70.3197 9.39001 70.2497 8.86001C71.0897 7.86001 71.9497 6.79001 72.7697 5.72001C73.9897 6.72001 79.6197 9.72001 81.2697 10.59H74.5897C74.5461 10.2458 74.3919 9.92507 74.1502 9.67616C73.9085 9.42725 73.5925 9.26365 73.2497 9.21001V9.15001ZM67.6497 9.33001L69.4997 9.26001C69.4997 9.57001 69.6197 13.26 69.5697 13.78C68.9383 13.8216 68.3042 13.7914 67.6797 13.69C67.7397 13 67.6897 10.17 67.6497 9.39001V9.33001ZM36.3397 61.9C36.4446 61.9606 36.5636 61.9925 36.6847 61.9925C36.8058 61.9925 36.9248 61.9606 37.0297 61.9C37.8197 61.51 39.3897 60.14 43.9697 57.11C44.1041 57.037 44.22 56.9341 44.3084 56.8093C44.3968 56.6845 44.4554 56.541 44.4797 56.39C44.4797 56.39 44.6497 52.12 44.4097 51.98C43.6397 51.5 41.4097 49.98 40.7697 50.08C40.6897 50.08 32.2497 55.34 32.2297 55.59C32.1461 56.6813 32.1294 57.7767 32.1797 58.87C33.4988 59.9696 34.8885 60.9818 36.3397 61.9ZM32.7897 56.28C33.5597 56.8 35.7097 58.28 36.2997 58.58V60.86C32.5597 58.36 32.7997 58.78 32.8297 58.04C32.8397 57.63 32.8097 56.67 32.7897 56.28ZM36.7097 57.75C36.646 57.7971 36.5689 57.8225 36.4897 57.8225C36.4105 57.8225 36.3334 57.7971 36.2697 57.75C36.1097 57.65 33.8697 56.05 33.2697 55.62C41.1297 50.62 40.8497 50.56 41.2697 50.71C41.4697 50.79 42.4097 51.39 43.6797 52.23C42.1797 53.51 36.8597 57.65 36.7097 57.75ZM43.7097 56.42C43.4997 56.62 38.0897 60.21 36.8897 60.99V58.49C37.5997 57.95 42.2897 54.27 43.7497 53.02C43.7897 56.32 43.8497 56.32 43.7597 56.42H43.7097ZM147.18 62.51C149.047 62.4664 150.864 61.8943 152.42 60.86C153.196 60.3711 153.78 59.6305 154.075 58.7621C154.37 57.8937 154.357 56.9503 154.04 56.09C154.7 55.59 156.81 53.8 157.22 53.41C158.07 53.46 159.06 51.95 159.59 51.13C159.81 50.79 160.1 50.44 159.95 50.05C158.6 48.6212 157.171 47.2691 155.67 46C155.569 45.8939 155.439 45.8208 155.296 45.7904C155.153 45.76 155.005 45.7738 154.87 45.83C153.874 46.7956 152.976 47.8574 152.19 49C152.155 49.1481 152.173 49.3035 152.24 49.44C152.24 49.51 150.85 53.54 150.68 54.03C149.931 54.1056 149.236 54.4524 148.726 55.005C148.216 55.5577 147.925 56.278 147.91 57.03C147.79 59.95 150.1 60.89 147.09 61.97C147.048 62.0059 147.016 62.0519 146.997 62.1036C146.979 62.1554 146.973 62.2111 146.983 62.2654C146.992 62.3197 147.014 62.3707 147.049 62.4136C147.084 62.4564 147.129 62.4896 147.18 62.51ZM152.96 49.18C153.609 48.2256 154.375 47.3556 155.24 46.59C155.78 47.02 158.9 49.9 159.24 50.37C158.99 50.8 157.59 52.62 157.24 52.66C157.21 52.63 153.09 49.3 152.96 49.18ZM153.68 55.44C153.17 54.6928 152.387 54.1757 151.5 54C151.7 53.33 152.43 50.88 152.68 49.89C153.44 50.54 155.32 52.12 156.47 53.03C156.02 53.48 154.32 54.93 153.68 55.44ZM148.78 61.72C149.56 61.01 149.37 60.08 149.01 59.19C148.37 57.19 148.56 55.9 149.63 55.19C149.906 55.0148 150.214 54.8965 150.537 54.8419C150.859 54.7873 151.189 54.7975 151.508 54.872C151.826 54.9465 152.126 55.0838 152.391 55.2757C152.656 55.4677 152.88 55.7105 153.05 55.99C154.63 58.48 151.67 61.15 148.78 61.72ZM84.6597 11C85.0697 11 87.4697 10.69 89.6597 10.46C89.7366 10.46 89.8103 10.4295 89.8647 10.3751C89.9191 10.3207 89.9497 10.2469 89.9497 10.17C89.9497 10.0931 89.9191 10.0193 89.8647 9.96495C89.8103 9.91056 89.7366 9.88001 89.6597 9.88001C88.8397 9.96001 84.9897 10.19 84.5697 10.28C84.4885 10.3071 84.4193 10.3614 84.3737 10.4338C84.3281 10.5061 84.309 10.592 84.3196 10.6769C84.3302 10.7618 84.3699 10.8403 84.4319 10.8992C84.4939 10.9581 84.5744 10.9938 84.6597 11ZM92.4997 10.36C92.7697 10.36 98.0797 9.92001 99.2497 9.98001C99.6397 9.98001 99.6697 9.41001 99.2497 9.38001C96.9641 9.26856 94.6733 9.34213 92.3997 9.60001C92.3133 9.62834 92.2395 9.68596 92.1911 9.76292C92.1426 9.83988 92.1226 9.93133 92.1345 10.0215C92.1464 10.1116 92.1894 10.1948 92.256 10.2566C92.3227 10.3184 92.4089 10.355 92.4997 10.36ZM102.26 9.79001L106.57 9.67001C106.641 9.65702 106.706 9.61938 106.752 9.56364C106.799 9.50791 106.824 9.43761 106.824 9.36501C106.824 9.29241 106.799 9.22212 106.752 9.16638C106.706 9.11064 106.641 9.073 106.57 9.06001L102.28 8.94001C102.178 8.95307 102.084 9.00226 102.015 9.07866C101.946 9.15505 101.907 9.2536 101.904 9.35642C101.902 9.45923 101.936 9.55951 102.002 9.63906C102.067 9.71862 102.158 9.77217 102.26 9.79001ZM110 9.93001C111.84 9.93001 118.48 10.24 120.1 10.52C120.5 10.6 120.64 9.98001 120.24 9.91001C116.847 9.39414 113.421 9.13341 109.99 9.13001C109.884 9.13134 109.782 9.17475 109.708 9.2507C109.634 9.32666 109.593 9.42892 109.595 9.53501C109.596 9.6411 109.639 9.74231 109.715 9.81639C109.791 9.89047 109.894 9.93134 110 9.93001ZM123.33 11.66C125.977 12.443 128.423 13.7906 130.5 15.61C130.82 15.9 131.27 15.43 130.96 15.14C128.862 13.1307 126.309 11.6588 123.52 10.85C123.419 10.8407 123.318 10.8682 123.236 10.9274C123.153 10.9866 123.095 11.0736 123.072 11.1723C123.049 11.271 123.062 11.3747 123.11 11.4644C123.157 11.554 123.235 11.6235 123.33 11.66ZM132.2 25C132.117 25.0202 132.044 25.0701 131.995 25.1401C131.947 25.2101 131.925 25.2956 131.935 25.3803C131.945 25.4651 131.985 25.5433 132.049 25.6004C132.112 25.6574 132.194 25.6893 132.28 25.69C133.6 25.69 135.15 24.15 135.28 22.02C135.41 19.89 133.95 18.18 132.55 16.75C132.49 16.689 132.409 16.6542 132.323 16.6533C132.238 16.6523 132.156 16.6853 132.095 16.745C132.034 16.8047 131.999 16.8861 131.998 16.9715C131.997 17.0568 132.03 17.139 132.09 17.2C133.67 18.84 134.44 20.34 134.45 21.8C134.476 22.5061 134.271 23.2014 133.864 23.7794C133.458 24.3573 132.873 24.7861 132.2 25ZM121.29 28.25C122.29 28.25 128.88 26.74 129.97 26.48C130.046 26.4548 130.11 26.4019 130.149 26.3316C130.188 26.2614 130.199 26.179 130.18 26.1009C130.162 26.0228 130.114 25.9546 130.047 25.91C129.98 25.8654 129.899 25.8475 129.82 25.86C128.33 26.2 123.07 27.12 121.22 27.44C121.123 27.4614 121.036 27.5174 120.978 27.5976C120.919 27.6777 120.891 27.7766 120.899 27.8757C120.908 27.9748 120.952 28.0675 121.024 28.1363C121.096 28.2052 121.19 28.2456 121.29 28.25ZM118.58 27.59C116.45 27.82 114.22 28.02 112.07 28.34C111.979 28.3671 111.901 28.4245 111.848 28.5025C111.795 28.5806 111.771 28.6745 111.779 28.7685C111.787 28.8625 111.827 28.9508 111.893 29.0185C111.959 29.0861 112.046 29.1291 112.14 29.14C112.75 29.14 117.63 28.5 118.61 28.38C119.12 28.31 119.09 27.52 118.58 27.59ZM103.5 30.15C104.08 30.15 108.08 29.5 109.01 29.37C109.088 29.3504 109.156 29.3029 109.201 29.2366C109.247 29.1702 109.266 29.0895 109.257 29.0097C109.247 28.9299 109.208 28.8564 109.148 28.803C109.088 28.7497 109.01 28.7202 108.93 28.72C107.71 28.86 104.62 29.13 103.42 29.34C103.322 29.3619 103.236 29.4187 103.177 29.4999C103.118 29.581 103.091 29.6808 103.101 29.7804C103.111 29.8801 103.157 29.9727 103.23 30.0407C103.304 30.1088 103.4 30.1477 103.5 30.15ZM86.8097 31.59C88.9497 31.59 91.1397 31.21 93.2597 31.01C93.6997 31.01 93.6997 30.28 93.2597 30.32C91.1297 30.49 88.8997 30.58 86.7497 30.88C86.3197 30.93 86.3697 31.59 86.8097 31.59ZM76.2697 32.51C76.1819 32.5308 76.1047 32.583 76.0527 32.6567C76.0006 32.7304 75.9773 32.8207 75.9872 32.9104C75.997 33.0001 76.0393 33.0831 76.106 33.1438C76.1728 33.2045 76.2594 33.2387 76.3497 33.24C77.0297 33.24 82.5197 32.43 83.3497 32.32C83.4371 32.2994 83.5137 32.2469 83.5644 32.1728C83.6151 32.0987 83.6362 32.0083 83.6237 31.9194C83.6112 31.8305 83.5659 31.7494 83.4967 31.6922C83.4275 31.6349 83.3394 31.6056 83.2497 31.61C81.9397 31.77 77.3797 32.28 76.2697 32.51ZM61.0397 35.37C64.9205 34.5556 68.843 33.9547 72.7897 33.57C73.3097 33.57 73.2897 32.72 72.7897 32.77C68.7938 33.0081 64.8294 33.6242 60.9497 34.61C60.8637 34.6378 60.79 34.6945 60.7412 34.7706C60.6924 34.8466 60.6716 34.9373 60.6822 35.027C60.6928 35.1167 60.7343 35.2 60.7995 35.2626C60.8647 35.3251 60.9496 35.3631 61.0397 35.37ZM47.6597 40.53C50.3264 38.9323 53.239 37.7868 56.2797 37.14C56.8097 37.03 56.5997 36.23 56.0797 36.34C52.9484 36.9617 49.9478 38.1186 47.2097 39.76C47.1239 39.8271 47.0653 39.923 47.0449 40.0299C47.0244 40.1368 47.0434 40.2476 47.0983 40.3416C47.1533 40.4356 47.2404 40.5065 47.3436 40.5411C47.4469 40.5758 47.5591 40.5718 47.6597 40.53ZM39.2097 48.57C40.3134 45.5973 42.4407 43.1154 45.2097 41.57C45.5797 41.37 45.2697 40.82 44.8897 41.01C41.8749 42.5086 39.5591 45.1184 38.4297 48.29C38.2397 48.85 39.0197 49.07 39.2097 48.57ZM41.3897 60.53C41.0897 60.19 40.6097 60.66 40.8897 60.99C41.5897 61.8 45.2797 64.64 46.0297 64.64C46.1084 64.6394 46.1847 64.6129 46.2469 64.5648C46.3092 64.5166 46.3539 64.4494 46.3743 64.3734C46.3948 64.2974 46.3897 64.2168 46.36 64.144C46.3302 64.0711 46.2774 64.01 46.2097 63.97C44.5134 62.9544 42.9016 61.804 41.3897 60.53ZM55.3297 66.94C53.0724 66.7169 50.8631 66.1469 48.7797 65.25C48.3197 65.05 47.9397 65.73 48.4097 65.95C50.5747 66.9756 52.9106 67.5926 55.2997 67.77C55.8497 67.8 55.8497 67 55.3297 66.94ZM57.4997 68.31C58.6597 68.48 63.3897 69.25 64.5897 69.31C64.6891 69.313 64.786 69.2788 64.8616 69.2142C64.9371 69.1495 64.9859 69.0591 64.9984 68.9604C65.0109 68.8618 64.9862 68.762 64.9291 68.6806C64.872 68.5992 64.7867 68.5419 64.6897 68.52C63.5397 68.28 58.8497 67.72 57.6897 67.52C57.2197 67.51 57.0297 68.23 57.4997 68.31ZM72.9097 69.53C70.9697 69.7023 69.0146 69.5399 67.1297 69.05C67.0512 69.0411 66.9722 69.0606 66.9069 69.105C66.8416 69.1494 66.7944 69.2157 66.7739 69.2919C66.7533 69.3681 66.7607 69.4492 66.7948 69.5204C66.8289 69.5916 66.8874 69.6482 66.9597 69.68C68.9058 70.2471 70.9392 70.4538 72.9597 70.29C73.4097 70.24 73.3997 69.5 72.9097 69.53ZM139.37 64.62C141.454 64.3917 143.508 63.9459 145.5 63.29C145.92 63.15 145.74 62.49 145.31 62.62C143.367 63.1846 141.375 63.5597 139.36 63.74C138.78 63.8 138.79 64.67 139.37 64.62ZM130.09 65.38C130.009 65.4057 129.94 65.4583 129.893 65.529C129.847 65.5996 129.826 65.6841 129.834 65.7683C129.842 65.8525 129.879 65.9313 129.938 65.9917C129.997 66.052 130.076 66.0903 130.16 66.1C130.89 66.1 135.88 65.22 136.73 65.1C137.22 65.01 137.03 64.3 136.56 64.37C133.98 64.74 132.06 65 130.09 65.38ZM127.5 65.69C125.01 66.13 122.5 66.39 120.12 66.62C119.6 66.68 119.62 67.48 120.12 67.44C122.639 67.2371 125.145 66.9033 127.63 66.44C127.679 66.4315 127.726 66.4133 127.768 66.3866C127.81 66.3599 127.847 66.3251 127.876 66.2842C127.905 66.2434 127.925 66.1972 127.936 66.1485C127.947 66.0997 127.948 66.0493 127.94 66C127.931 65.9508 127.913 65.9037 127.886 65.8615C127.86 65.8192 127.825 65.7827 127.784 65.7539C127.743 65.7251 127.697 65.7046 127.648 65.6937C127.599 65.6827 127.549 65.6815 127.5 65.69ZM54.4397 101.33C54.8797 101.33 54.8997 100.71 54.4397 100.65C52.4109 100.348 50.3485 100.348 48.3197 100.65C48.2236 100.671 48.1391 100.728 48.083 100.809C48.027 100.89 48.0035 100.989 48.0175 101.086C48.0314 101.183 48.0816 101.272 48.158 101.334C48.2345 101.396 48.3315 101.427 48.4297 101.42C50.4264 101.212 52.4376 101.182 54.4397 101.33ZM143.23 100.8C143.147 100.826 143.075 100.88 143.027 100.952C142.979 101.025 142.957 101.112 142.965 101.198C142.973 101.285 143.011 101.366 143.072 101.428C143.133 101.491 143.213 101.53 143.3 101.54C143.4 101.54 148.67 101.39 149.94 101.54C150.28 101.59 150.39 101.07 150.05 101.02C147.787 100.756 145.505 100.682 143.23 100.8ZM140.5 101.59C140.579 101.59 140.656 101.558 140.712 101.502C140.768 101.446 140.8 101.37 140.8 101.29C140.8 101.21 140.768 101.134 140.712 101.078C140.656 101.022 140.579 100.99 140.5 100.99C139.026 100.894 137.546 100.999 136.1 101.3C135.67 101.39 135.79 102.02 136.2 102.02C137.61 101.702 139.054 101.558 140.5 101.59ZM163.26 114C163.18 114.4 163.76 114.65 163.93 114.26C164.79 112.32 165.22 109.35 164.14 107.26C163.93 106.86 163.33 107.2 163.53 107.6C164.74 110 163.58 112.45 163.26 114ZM42.4997 144C41.0927 145.169 39.916 146.59 39.0297 148.19C39.01 148.223 38.9969 148.259 38.9913 148.297C38.9857 148.335 38.9875 148.374 38.9968 148.411C39.0156 148.486 39.0634 148.55 39.1297 148.59C39.196 148.63 39.2754 148.642 39.3504 148.623C39.4254 148.604 39.4899 148.556 39.5297 148.49C40.4446 146.982 41.6155 145.646 42.9897 144.54C43.3897 144.25 42.8997 143.73 42.4997 144ZM49.1797 138.13C47.8095 139.155 46.5068 140.267 45.2797 141.46C45.22 141.521 45.187 141.603 45.1879 141.689C45.1889 141.774 45.2237 141.855 45.2847 141.915C45.3457 141.975 45.4279 142.008 45.5132 142.007C45.5985 142.006 45.68 141.971 45.7397 141.91C46.2997 141.32 49.3097 138.97 49.6097 138.72C49.9097 138.47 49.5497 138 49.1797 138.13ZM52.1797 136.31C52.3897 136.31 51.7697 136.51 55.4997 134.05C55.5775 133.996 55.6324 133.915 55.6537 133.823C55.6751 133.731 55.6613 133.634 55.615 133.552C55.5687 133.469 55.4934 133.407 55.4036 133.377C55.3139 133.347 55.2162 133.352 55.1297 133.39C54.0276 134.141 52.9754 134.963 51.9797 135.85C51.9461 135.89 51.9243 135.938 51.9168 135.99C51.9093 136.042 51.9163 136.094 51.9371 136.142C51.9579 136.19 51.9916 136.231 52.0344 136.261C52.0773 136.29 52.1276 136.307 52.1797 136.31Z" fill="white"/>
<path d="M57.2895 132.351C57.5495 132.461 57.3795 132.351 60.5295 130.351C60.3267 132.862 60.3635 135.387 60.6395 137.891C59.0792 137.043 57.582 136.084 56.1595 135.021C55.8895 134.811 55.5295 135.191 55.8095 135.421C57.3635 136.752 59.0373 137.938 60.8095 138.961C62.1201 148.916 67.1989 157.989 74.9995 164.311C71.4195 165.151 69.1595 165.621 68.2795 165.711C67.8995 165.711 67.8995 166.331 68.2795 166.331C69.1495 166.331 74.6895 165.251 75.8595 165.011C90.2195 176.441 109.099 175.321 122.859 164.791C125.614 165.519 128.413 166.067 131.239 166.431C131.327 166.424 131.41 166.388 131.473 166.327C131.537 166.266 131.578 166.185 131.588 166.098C131.599 166.011 131.579 165.922 131.532 165.848C131.484 165.774 131.413 165.718 131.329 165.691C130.089 165.481 126.609 164.821 123.609 164.201C131.133 158.243 136.147 149.678 137.659 140.201C138.039 139.961 138.409 139.701 138.769 139.431C139.129 139.161 138.769 138.531 138.379 138.781L137.809 139.131C139.029 128.511 135.289 117.931 128.679 109.981C130.559 107.911 131.869 105.461 131.099 102.741C132.047 102.452 133.012 102.225 133.989 102.061C134.429 102.001 134.269 101.351 133.849 101.411C132.837 101.54 131.834 101.741 130.849 102.011C130.119 100.2 128.865 98.6483 127.247 97.5545C125.629 96.4607 123.722 95.8745 121.769 95.8709C123.367 94.1915 124.539 92.1541 125.188 89.929C125.837 87.7039 125.944 85.3558 125.499 83.0809C123.649 74.5809 117.039 66.5009 108.719 61.8509C108.923 60.7256 108.862 59.5683 108.539 58.4709C108.319 57.4709 107.659 57.1309 106.889 56.6309C106.489 56.3709 106.109 56.1309 105.689 55.8909C106.793 54.174 107.37 52.1718 107.349 50.1309C109.599 49.9109 109.679 46.6309 107.209 46.1309C109.719 34.3509 87.9295 32.3509 89.2095 46.5109C88.7656 46.6376 88.3679 46.8901 88.0645 47.2379C87.761 47.5858 87.5648 48.014 87.4995 48.4709C87.4402 48.7842 87.4591 49.1072 87.5545 49.4114C87.6498 49.7156 87.8186 49.9917 88.046 50.2151C88.2734 50.4385 88.5523 50.6025 88.8582 50.6925C89.164 50.7824 89.4873 50.7957 89.7995 50.7309C89.7077 52.0258 89.9777 53.3207 90.5795 54.4709C90.0792 54.586 89.6134 54.8182 89.2205 55.1485C88.8275 55.4789 88.5187 55.8979 88.3195 56.3709C87.8762 57.633 87.7897 58.9929 88.0695 60.3009C80.1194 63.9278 73.7631 70.3268 70.1895 78.3009C67.3595 84.7509 68.7395 89.4709 73.7395 94.3909C71.5002 93.6688 69.0802 93.743 66.8895 94.6009C65.5155 95.1919 64.2867 96.075 63.2886 97.1889C62.2904 98.3028 61.5468 99.6207 61.1095 101.051C60.1475 100.897 59.1708 100.857 58.1995 100.931C58.133 100.943 58.073 100.979 58.0299 101.031C57.9867 101.083 57.9631 101.148 57.9631 101.216C57.9631 101.284 57.9867 101.349 58.0299 101.401C58.073 101.453 58.133 101.488 58.1995 101.501C59.1207 101.462 60.0423 101.57 60.9295 101.821C60.2395 106.031 63.8095 109.591 67.2795 112.091C63.5554 117.151 61.2618 123.119 60.6395 129.371C59.466 130.086 58.3342 130.867 57.2495 131.711C57.1924 131.745 57.1457 131.794 57.1147 131.852C57.0837 131.911 57.0694 131.977 57.0736 132.043C57.0777 132.109 57.1 132.173 57.1381 132.227C57.1762 132.282 57.2286 132.325 57.2895 132.351ZM101.499 58.6009L101.919 58.4709C102.149 58.7109 102.769 59.2509 103.149 59.5709C100.179 61.1309 96.4995 61.0009 92.6595 59.1309C93.0895 58.7409 93.7895 58.0309 94.0495 57.7309C94.7371 57.9943 95.438 58.2213 96.1495 58.4109C96.4414 58.8437 96.8315 59.2013 97.288 59.4545C97.7445 59.7077 98.2544 59.8494 98.7761 59.8679C99.2978 59.8865 99.8165 59.7813 100.29 59.5611C100.763 59.3409 101.178 59.0119 101.499 58.6009ZM93.4995 57.4509C93.1595 57.8309 92.3995 58.6409 92.1495 58.8509C91.8695 58.6976 91.5895 58.5376 91.3095 58.3709C91.2551 58.3378 91.1898 58.3276 91.1279 58.3426C91.066 58.3576 91.0126 58.3966 90.9795 58.4509C90.9463 58.5053 90.9361 58.5706 90.9511 58.6325C90.9661 58.6944 91.0051 58.7478 91.0595 58.7809C93.4895 60.3409 95.8595 61.5209 98.7295 61.5209C99.8922 61.5761 101.052 61.3703 102.125 60.9187C103.198 60.4671 104.156 59.781 104.929 58.9109C104.971 58.8685 104.993 58.8115 104.992 58.7524C104.991 58.6933 104.967 58.6371 104.924 58.5959C104.882 58.5548 104.825 58.5323 104.766 58.5332C104.707 58.5341 104.651 58.5585 104.609 58.6009C104.339 58.8244 104.055 59.0314 103.759 59.2209C103.489 58.9909 102.869 58.4909 102.569 58.2209C103.587 57.8369 104.511 57.2403 105.279 56.4709C106.279 56.8951 107.176 57.5294 107.909 58.3309C108.277 59.4203 108.336 60.5902 108.079 61.7109C107.159 64.5509 99.7195 67.3609 92.0795 63.3709C89.3895 62.0209 88.2595 60.9109 88.7395 57.5509C88.7752 56.9569 89.0034 56.3907 89.3895 55.9379C89.7756 55.485 90.2986 55.1702 90.8795 55.0409C91.5383 56.0501 92.4389 56.8785 93.4995 57.4509ZM101.639 66.0009C103.269 65.8009 107.139 65.0609 108.509 62.5309C116.459 66.9309 124.749 76.7709 124.939 85.7409C125.008 87.7125 124.614 89.6727 123.789 91.4647C122.964 93.2567 121.732 94.8307 120.189 96.0609C118.775 96.3211 117.42 96.8362 116.189 97.5809C117.069 83.9909 117.099 84.8109 116.999 84.7109C116.899 84.6109 115.379 84.6009 112.899 84.5409C113.209 84.1509 114.039 83.0509 114.229 82.8309C114.276 82.7819 114.301 82.7164 114.299 82.6489C114.297 82.5814 114.269 82.5174 114.219 82.4709C114.17 82.4245 114.105 82.3995 114.037 82.4014C113.97 82.4033 113.906 82.4319 113.859 82.4809C113.228 83.1819 112.56 83.8495 111.859 84.4809H111.649C111.905 81.448 111.971 78.4022 111.849 75.3609C111.849 75.1209 111.429 75.1209 111.449 75.3609C111.549 76.7909 110.879 83.2009 110.799 84.4309C103.349 84.2809 90.9295 84.1509 83.4295 84.0809C82.5103 80.9715 82.1215 77.7295 82.2795 74.4909C82.2795 74.1509 81.7995 74.1509 81.7695 74.4909C81.4462 77.7124 81.7139 80.9657 82.5595 84.0909H82.3495C81.3474 83.0892 80.3962 82.0379 79.4995 80.9409C79.4631 80.8909 79.4094 80.8561 79.3488 80.8434C79.2883 80.8306 79.2251 80.8407 79.1716 80.8719C79.1181 80.903 79.0781 80.9528 79.0592 81.0118C79.0403 81.0707 79.044 81.1346 79.0695 81.1909C79.1795 81.4009 80.3795 83.1909 81.1695 84.1309H77.2895C76.9995 84.1309 77.0895 84.1309 77.0695 84.3609C76.9695 85.4909 77.3295 91.7309 77.6095 96.1709C77.0065 95.7949 76.3783 95.4608 75.7295 95.1709C70.5795 90.1109 67.8395 86.171 70.6395 79.4109C73.9822 71.2693 80.28 64.6928 88.2695 61.0009C89.3895 63.3909 95.0795 66.7809 101.639 66.0009ZM77.7095 84.8409C78.8495 84.8409 113.929 85.1509 116.379 85.3709C115.909 89.3109 115.039 100.951 114.739 104.861H112.549C111.309 105.931 102.109 113.571 101.449 114.131C101.219 114.311 101.639 114.461 102.629 115.351C103.252 115.808 103.774 116.388 104.163 117.056C104.552 117.723 104.799 118.464 104.889 119.231C104.892 119.266 104.908 119.299 104.934 119.324C104.96 119.348 104.994 119.361 105.029 119.361C108.589 119.511 111.599 122.681 109.129 124.641C106.859 126.441 103.349 124.641 101.609 122.981C103.179 120.931 104.099 119.141 102.339 117.291C102.129 117.071 99.8695 115.231 96.9995 112.891C86.1295 104.021 86.9995 104.521 86.8595 104.521C86.2995 104.521 80.3595 104.111 79.2895 104.051C78.4995 97.6509 77.9195 88.3009 77.7095 84.8409ZM88.1695 124.281C86.6995 124.391 84.2295 124.581 83.1695 123.091C82.4795 122.091 83.5095 120.921 84.6195 120.601C87.0495 121.481 90.8695 122.711 92.1095 123.101C90.8757 123.723 89.542 124.122 88.1695 124.281ZM82.9695 124.081C83.9695 125.081 85.6695 125.201 87.0295 125.181C89.2484 125.17 91.4252 124.573 93.3395 123.451C95.5295 124.091 97.6995 124.641 99.9595 125.121C99.9865 125.13 100.016 125.13 100.043 125.121C100.07 125.112 100.093 125.095 100.109 125.071C100.489 124.601 100.859 124.071 101.199 123.621C103.499 125.761 107.339 127.171 109.699 125.351C111.439 124.001 111.169 121.691 109.429 120.261C117.709 117.831 124.299 114.341 127.999 110.671C131.453 114.63 134.008 119.29 135.491 124.331C136.974 129.371 137.349 134.672 136.589 139.871C134.477 141.253 132.29 142.518 130.039 143.661C129.985 143.689 129.942 143.734 129.917 143.79C129.892 143.846 129.886 143.909 129.901 143.968C129.916 144.027 129.951 144.079 130 144.116C130.049 144.153 130.108 144.172 130.169 144.171C130.299 144.171 134.299 142.241 136.409 140.991C134.683 150.027 129.833 158.169 122.709 163.991C121.099 163.651 119.709 163.331 119.049 163.131C118.689 163.011 118.529 163.551 118.879 163.681C119.489 163.901 120.629 164.211 121.989 164.561C115.539 169.476 107.661 172.151 99.5513 172.18C91.4418 172.209 83.5446 169.59 77.0595 164.721C78.258 164.47 79.4376 164.136 80.5895 163.721C81.0295 163.531 80.7595 162.881 80.3095 162.981L76.1495 163.981C68.528 157.864 63.4208 149.158 61.7995 139.521L61.9995 139.611C62.4595 139.811 62.8195 139.181 62.3895 138.931L61.6495 138.501C60.3272 129.374 62.5531 120.087 67.8695 112.551C72.8494 115.737 78.1859 118.328 83.7695 120.271C82.1895 121.071 81.6595 122.791 82.9695 124.081ZM106.829 49.8709C106.619 51.8709 106.319 53.8709 105.079 55.4109C104.399 56.2609 102.949 57.5209 101.759 57.5509C100.969 57.5509 100.689 57.0909 100.179 56.5509C99.5095 55.7709 99.1795 55.3609 98.8195 55.4209C98.0195 55.5209 98.1595 57.0309 96.8795 57.7809C96.4895 58.0009 95.1295 57.6109 94.0895 57.1109C92.8704 56.5063 91.8654 55.5432 91.2094 54.351C90.5534 53.1587 90.2777 51.7943 90.4195 50.4409C90.4195 50.2009 90.0695 50.0509 89.9295 50.1209C89.7121 50.1961 89.4792 50.2145 89.2527 50.1744C89.0263 50.1343 88.8139 50.037 88.6356 49.8918C88.4573 49.7465 88.319 49.5582 88.2339 49.3445C88.1489 49.1308 88.1198 48.899 88.1495 48.6709C88.5295 46.6709 90.7695 47.1709 91.3595 48.3309C91.3792 48.3602 91.4085 48.3816 91.4424 48.3914C91.4763 48.4011 91.5126 48.3986 91.5448 48.3843C91.5771 48.3699 91.6032 48.3447 91.6187 48.313C91.6342 48.2813 91.638 48.2452 91.6295 48.2109C91.2266 47.1596 91.1765 46.0058 91.4867 44.9235C91.797 43.8412 92.4508 42.8891 93.3495 42.2109C94.7779 43.2028 96.4754 43.7343 98.2145 43.7343C99.9535 43.7343 101.651 43.2028 103.079 42.2109C105.009 43.7109 105.079 46.8309 104.939 47.9209C104.938 47.9473 104.942 47.9737 104.953 47.998C104.963 48.0223 104.979 48.0439 104.999 48.0609C105.169 48.1909 105.449 47.8509 105.589 47.6909C105.769 47.4118 106.027 47.1917 106.331 47.0583C106.636 46.925 106.972 46.8841 107.299 46.9409C107.626 46.9887 107.924 47.1546 108.137 47.4073C108.35 47.6599 108.462 47.9818 108.454 48.312C108.445 48.6422 108.316 48.9578 108.09 49.199C107.865 49.4402 107.558 49.5903 107.229 49.6209C107.159 49.5609 106.849 49.6609 106.829 49.8709Z" fill="white"/>
<path d="M92.5 159.55C92.5 159.68 92.6 159.79 92.5 159.55C89.6751 160.693 86.7534 161.58 83.77 162.2C83.41 162.27 83.53 162.8 83.89 162.76C86.9789 162.412 89.9893 161.557 92.8 160.23C93.21 160 92.94 159.39 92.5 159.55ZM106.5 155.3C106.74 155.3 114.84 152.12 115.63 151.61C116.02 151.35 115.75 150.68 115.29 150.85C114.48 151.15 108.04 154.19 106.43 154.76C106.371 154.782 106.322 154.824 106.289 154.878C106.257 154.932 106.244 154.995 106.252 155.057C106.26 155.12 106.289 155.178 106.334 155.222C106.379 155.266 106.437 155.293 106.5 155.3ZM118.88 150C119.14 150 125.88 146.93 126.51 146.45C126.82 146.21 126.61 145.64 126.2 145.8C125.59 146.03 120.06 148.8 118.79 149.33C118.719 149.36 118.66 149.412 118.621 149.479C118.583 149.545 118.568 149.623 118.578 149.699C118.588 149.776 118.623 149.847 118.678 149.901C118.733 149.955 118.804 149.99 118.88 150ZM138.5 129.9C139.06 130.26 141.14 131.9 141.7 132.26C141.786 132.309 141.886 132.326 141.983 132.308C142.081 132.289 142.168 132.235 142.228 132.157C142.289 132.079 142.32 131.982 142.315 131.883C142.31 131.785 142.269 131.691 142.2 131.62C141.67 131.17 139.38 129.74 138.81 129.4C138.744 129.359 138.664 129.346 138.588 129.363C138.512 129.381 138.446 129.429 138.405 129.495C138.364 129.561 138.351 129.641 138.369 129.717C138.386 129.793 138.434 129.859 138.5 129.9ZM151.05 138.2C150.74 137.95 150.32 138.4 150.64 138.66C151.35 139.25 154.17 141.75 154.95 142.28C155.033 142.321 155.127 142.332 155.217 142.311C155.307 142.29 155.387 142.239 155.443 142.166C155.5 142.093 155.53 142.003 155.527 141.911C155.525 141.818 155.49 141.73 155.43 141.66C154.79 141 151.88 138.86 151.05 138.2ZM157.5 143.94C157.44 143.882 157.36 143.849 157.276 143.85C157.193 143.851 157.113 143.885 157.055 143.945C156.997 144.005 156.964 144.085 156.965 144.168C156.966 144.252 157 144.332 157.06 144.39C158.316 145.66 159.444 147.05 160.43 148.54C160.75 148.99 161.48 148.54 161.17 148.08C160.126 146.551 158.893 145.16 157.5 143.94ZM143.5 167C142.16 167 136.39 166.62 134.97 166.33C134.905 166.314 134.836 166.325 134.779 166.359C134.722 166.394 134.681 166.45 134.665 166.515C134.649 166.58 134.66 166.648 134.694 166.706C134.729 166.763 134.785 166.804 134.85 166.82C137.706 167.357 140.597 167.691 143.5 167.82C143.609 167.82 143.713 167.777 143.79 167.7C143.867 167.623 143.91 167.519 143.91 167.41C143.91 167.301 143.867 167.197 143.79 167.12C143.713 167.043 143.609 167 143.5 167ZM107.76 159.81C107.41 159.64 107.12 160.16 107.48 160.34C109.999 161.612 112.696 162.496 115.48 162.96C116.02 163.06 116.23 162.23 115.68 162.14C112.944 161.736 110.278 160.952 107.76 159.81ZM96.04 159.12C97.29 158.85 99.84 158.12 100.24 158.06C100.62 158.21 103.06 159.13 104.36 159.44C104.457 159.462 104.559 159.445 104.645 159.394C104.731 159.342 104.793 159.26 104.82 159.164C104.847 159.068 104.836 158.966 104.79 158.877C104.743 158.789 104.664 158.722 104.57 158.69C103.57 158.33 102.57 158.03 101.46 157.69C102.266 157.422 103.049 157.087 103.8 156.69C103.855 156.631 103.891 156.558 103.905 156.48C103.918 156.401 103.908 156.32 103.876 156.246C103.845 156.173 103.792 156.111 103.725 156.067C103.658 156.023 103.58 156 103.5 156C102.38 156.38 101.28 156.86 100.19 157.28C98.95 156.84 97.81 156.39 96.72 155.91C96.36 155.75 96.07 156.28 96.44 156.45C97.35 156.88 98.26 157.29 99.16 157.66C98.0969 158.029 97.0155 158.343 95.92 158.6C95.874 158.633 95.8389 158.68 95.819 158.733C95.7991 158.786 95.7953 158.844 95.8081 158.9C95.8209 158.955 95.8497 159.005 95.8909 159.045C95.9321 159.084 95.984 159.11 96.04 159.12ZM51.28 131.24C50.28 130.46 46.53 127.24 45.7 126.36C45.43 126.07 44.98 126.5 45.25 126.79C46.8821 128.71 48.7464 130.42 50.8 131.88C51.2 132.15 51.66 131.54 51.28 131.24ZM39.4 178.56C38.7759 173.039 37.6513 167.587 36.04 162.27C36.9522 163.649 38.3588 164.626 39.97 165C40.0389 165.029 40.1166 165.03 40.186 165.002C40.2554 164.973 40.3108 164.919 40.34 164.85C40.3691 164.781 40.3697 164.703 40.3416 164.634C40.3135 164.564 40.2589 164.509 40.19 164.48C38.91 163.71 36.94 162.93 36.33 161.06C36.6637 160.451 36.7459 159.735 36.559 159.066C36.3722 158.397 35.9311 157.828 35.33 157.48C35.6898 155.356 36.4499 153.32 37.57 151.48C37.7 151.23 37.36 150.97 37.17 151.19C35.7429 152.969 34.8701 155.129 34.66 157.4C34.3996 157.419 34.1435 157.476 33.9 157.57C31.2505 150.722 27.4864 144.359 22.76 138.74C22.9419 138.43 23.0126 138.067 22.9604 137.711C22.9081 137.355 22.7361 137.028 22.4726 136.783C22.2092 136.538 21.8701 136.391 21.5115 136.365C21.1528 136.339 20.796 136.436 20.5 136.64C20.1622 136.87 19.9167 137.212 19.8068 137.605C19.697 137.999 19.73 138.418 19.9 138.79C20.0132 138.988 20.1655 139.161 20.3475 139.299C20.5295 139.437 20.7375 139.536 20.9589 139.591C21.1804 139.646 21.4107 139.656 21.6361 139.62C21.8614 139.583 22.077 139.502 22.27 139.38C26.904 144.936 30.6177 151.199 33.27 157.93C31.64 159.37 33.06 162.07 35.11 161.85C36.8002 167.353 37.9785 173 38.63 178.72C38.33 178.879 38.0975 179.141 37.9751 179.458C37.8528 179.774 37.8489 180.125 37.9641 180.444C38.0793 180.763 38.3059 181.031 38.6023 181.196C38.8986 181.362 39.2449 181.415 39.5773 181.346C39.9098 181.277 40.2061 181.09 40.4119 180.82C40.6177 180.55 40.7192 180.215 40.6976 179.876C40.676 179.537 40.5329 179.217 40.2945 178.976C40.0561 178.734 39.7385 178.586 39.4 178.56ZM22.22 138C22.2551 138.132 22.2594 138.27 22.2327 138.404C22.2059 138.537 22.1488 138.663 22.0657 138.771C21.9826 138.879 21.8757 138.967 21.7533 139.027C21.631 139.088 21.4964 139.119 21.36 139.119C21.2236 139.119 21.089 139.088 20.9666 139.027C20.8443 138.967 20.7374 138.879 20.6543 138.771C20.5712 138.663 20.514 138.537 20.4873 138.404C20.4605 138.27 20.4649 138.132 20.5 138C20.4649 137.868 20.4605 137.73 20.4873 137.596C20.514 137.462 20.5712 137.337 20.6543 137.228C20.7374 137.12 20.8443 137.033 20.9666 136.972C21.089 136.912 21.2236 136.881 21.36 136.881C21.4964 136.881 21.631 136.912 21.7533 136.972C21.8757 137.033 21.9826 137.12 22.0657 137.228C22.1488 137.337 22.2059 137.462 22.2327 137.596C22.2594 137.73 22.2551 137.868 22.22 138ZM40.22 179.91C40.22 180.91 38.57 180.91 38.57 179.91C38.57 178.91 40.18 179 40.18 180L40.22 179.91ZM35.84 160.31C35.3 161.98 33.29 160.81 33.32 159.45C33.32 158.25 34.99 157.45 35.62 158.6C35.7814 158.859 35.8815 159.151 35.9127 159.454C35.9439 159.757 35.9053 160.064 35.8 160.35L35.84 160.31ZM181.28 120.09C181.275 119.801 181.19 119.519 181.034 119.276C180.878 119.033 180.658 118.837 180.398 118.712C180.137 118.586 179.847 118.536 179.56 118.565C179.273 118.595 178.999 118.704 178.77 118.88C173.143 115.585 168.303 111.101 164.59 105.74C164.861 105.428 165.048 105.052 165.132 104.648C165.216 104.243 165.195 103.824 165.07 103.43C164.974 103.124 164.801 102.849 164.567 102.63C164.333 102.411 164.046 102.257 163.735 102.183C163.424 102.108 163.098 102.116 162.791 102.204C162.483 102.293 162.204 102.461 161.98 102.69C157.167 96.1797 153.728 88.7596 151.87 80.8799C152.058 80.6673 152.172 80.4003 152.198 80.1178C152.223 79.8354 152.157 79.5523 152.01 79.3099C151.899 79.0595 151.71 78.8519 151.472 78.7185C151.233 78.5851 150.957 78.5331 150.686 78.5703C150.414 78.6076 150.163 78.7322 149.969 78.9251C149.775 79.1181 149.649 79.369 149.61 79.6399C149.546 79.8675 149.546 80.1081 149.608 80.3361C149.67 80.5641 149.793 80.7711 149.963 80.935C150.133 81.099 150.344 81.214 150.574 81.2676C150.804 81.3213 151.045 81.3117 151.27 81.2399C153.112 89.2105 156.608 96.7055 161.53 103.24C161.425 103.41 161.347 103.596 161.3 103.79C160.03 103.18 153.72 101.18 153.06 101.36C152.78 101.44 152.91 101.78 153.06 101.82C155.821 102.583 158.533 103.515 161.18 104.61C161.236 104.916 161.361 105.205 161.545 105.456C161.73 105.707 161.969 105.912 162.244 106.057C162.52 106.201 162.825 106.281 163.136 106.291C163.447 106.3 163.756 106.238 164.04 106.11C168.6 112.59 173.27 116.96 178.31 119.47C178.202 119.713 178.156 119.978 178.177 120.243C178.197 120.508 178.283 120.763 178.427 120.987C178.571 121.21 178.768 121.394 179.001 121.522C179.233 121.65 179.494 121.718 179.76 121.72C179.972 121.73 180.183 121.694 180.38 121.614C180.576 121.534 180.753 121.412 180.898 121.257C181.043 121.102 181.152 120.917 181.218 120.716C181.284 120.514 181.305 120.301 181.28 120.09ZM179.06 120.59C178.974 120.463 178.923 120.316 178.911 120.163C178.899 120.011 178.928 119.858 178.993 119.719C179.059 119.581 179.16 119.462 179.285 119.374C179.411 119.287 179.557 119.234 179.71 119.22C179.95 119.228 180.177 119.328 180.345 119.499C180.513 119.67 180.608 119.9 180.61 120.14C180.61 120.322 180.551 120.499 180.442 120.645C180.333 120.791 180.179 120.897 180.004 120.948C179.829 120.998 179.643 120.991 179.472 120.926C179.302 120.862 179.157 120.744 179.06 120.59ZM163.74 105.53C163.431 105.63 163.097 105.623 162.793 105.51C162.488 105.398 162.23 105.186 162.06 104.91C161.966 104.688 161.928 104.446 161.948 104.205C161.967 103.965 162.045 103.733 162.173 103.529C162.302 103.325 162.478 103.154 162.686 103.033C162.894 102.911 163.129 102.842 163.37 102.83C164.65 102.83 164.87 105.06 163.74 105.53ZM151.55 79.9999C151.562 80.094 151.553 80.1896 151.525 80.2802C151.497 80.3708 151.45 80.4544 151.387 80.5255C151.324 80.5966 151.247 80.6535 151.16 80.6924C151.074 80.7314 150.98 80.7516 150.885 80.7516C150.79 80.7516 150.696 80.7314 150.61 80.6924C150.523 80.6535 150.446 80.5966 150.383 80.5255C150.32 80.4544 150.273 80.3708 150.245 80.2802C150.217 80.1896 150.208 80.094 150.22 79.9999C150.208 79.9057 150.217 79.8101 150.245 79.7195C150.273 79.6289 150.32 79.5453 150.383 79.4742C150.446 79.4032 150.523 79.3463 150.61 79.3073C150.696 79.2683 150.79 79.2482 150.885 79.2482C150.98 79.2482 151.074 79.2683 151.16 79.3073C151.247 79.3463 151.324 79.4032 151.387 79.4742C151.45 79.5453 151.497 79.6289 151.525 79.7195C151.553 79.8101 151.562 79.9057 151.55 79.9999ZM167.5 161.37C167.528 161.3 167.53 161.223 167.506 161.151C167.482 161.08 167.434 161.019 167.37 160.98C166.87 160.67 166.05 161.19 165.91 161.78C166.25 161.81 167.29 161.77 167.5 161.37Z" fill="white"/>
<path d="M165.12 154.761C164.47 153.385 163.739 152.049 162.93 150.761C162.885 150.695 162.817 150.649 162.74 150.632C162.662 150.615 162.581 150.629 162.513 150.67C162.445 150.711 162.396 150.776 162.375 150.853C162.354 150.929 162.363 151.011 162.4 151.081C163.074 152.266 163.659 153.499 164.15 154.771C163.034 154.892 161.973 155.319 161.084 156.003C160.195 156.688 159.511 157.604 159.108 158.652C158.705 159.699 158.599 160.837 158.8 161.942C159.001 163.046 159.503 164.073 160.25 164.911C156.79 166.257 153.13 167.021 149.42 167.171C149.354 167.183 149.294 167.219 149.25 167.271C149.207 167.323 149.184 167.388 149.184 167.456C149.184 167.523 149.207 167.589 149.25 167.641C149.294 167.693 149.354 167.728 149.42 167.741C153.376 167.825 157.307 167.096 160.97 165.601C161.719 166.195 162.598 166.605 163.535 166.796C164.472 166.988 165.442 166.956 166.364 166.703C167.287 166.451 168.137 165.984 168.845 165.342C169.554 164.699 170.101 163.899 170.443 163.005C170.785 162.112 170.911 161.151 170.812 160.199C170.713 159.248 170.391 158.333 169.873 157.529C169.355 156.726 168.654 156.055 167.828 155.572C167.003 155.09 166.075 154.808 165.12 154.751V154.761ZM163.85 164.001C163.75 163.331 163.71 162.651 163.59 162.001H162.12C162.03 162.591 162.03 163.181 161.94 163.771C161.935 163.813 161.921 163.853 161.9 163.89C161.879 163.927 161.851 163.959 161.818 163.985C161.785 164.011 161.746 164.031 161.705 164.042C161.665 164.053 161.622 164.056 161.58 164.051C161.538 164.046 161.497 164.032 161.461 164.011C161.424 163.99 161.391 163.962 161.365 163.929C161.339 163.895 161.32 163.857 161.309 163.816C161.298 163.775 161.295 163.733 161.3 163.691C161.3 163.031 161.85 158.831 161.96 158.241C162.1 157.411 162.54 157.341 162.79 157.371C163.31 157.431 163.45 157.971 163.56 158.371C163.85 159.441 164.56 162.701 164.74 163.781C164.82 164.321 163.94 164.541 163.85 164.001ZM168.34 163.231C166.73 164.351 164.7 163.011 165.34 161.461C165.75 160.461 167.34 159.781 168.01 160.821C168.091 160.989 168.13 161.174 168.126 161.36C168.121 161.546 168.072 161.729 167.983 161.893C167.895 162.057 167.768 162.197 167.615 162.303C167.461 162.409 167.285 162.476 167.1 162.501C166.768 162.545 166.432 162.545 166.1 162.501C166.227 162.641 166.375 162.759 166.54 162.851C167.54 163.271 168.21 162.521 168.41 162.941C168.426 162.983 168.427 163.029 168.415 163.072C168.402 163.116 168.376 163.154 168.34 163.181V163.231Z" fill="white"/>
<path d="M162.64 158.429C162.49 159.189 162.32 160.549 162.24 161.179H163.43C163.32 160.669 163.03 159.239 162.83 158.459C162.8 158.329 162.66 158.299 162.64 158.429ZM76.0003 143.459C75.4003 143.099 74.0803 143.059 74.0003 143.849C73.9403 144.289 74.0003 146.049 74.0003 146.519C74.4565 146.506 74.9051 146.399 75.3181 146.204C75.731 146.01 76.0994 145.733 76.4003 145.389C76.5128 145.24 76.5922 145.069 76.6332 144.887C76.6742 144.705 76.6758 144.516 76.6379 144.334C76.6001 144.151 76.5236 143.978 76.4136 143.828C76.3036 143.677 76.1627 143.551 76.0003 143.459Z" fill="white"/>
<path d="M93.0901 154.331C90.326 153.318 87.6216 152.15 84.9901 150.831C85.5153 149.757 85.824 148.59 85.8985 147.398C85.973 146.205 85.8118 145.009 85.4241 143.878C85.0364 142.748 84.4298 141.705 83.639 140.809C82.8482 139.912 81.8886 139.181 80.8151 138.656C79.7415 138.13 78.575 137.822 77.3821 137.747C76.1893 137.673 74.9934 137.834 73.8629 138.222C72.7323 138.609 71.6892 139.216 70.7931 140.007C69.8969 140.797 69.1653 141.757 68.6401 142.831C67.4301 142.186 66.2552 141.479 65.1201 140.711C64.8101 140.511 64.5201 140.981 64.8101 141.191C66.1601 142.191 67.2901 142.891 68.3401 143.531C64.7501 154.011 78.7001 160.721 84.6401 151.441C87.2469 152.921 90.0377 154.05 92.9401 154.801C92.9987 154.809 93.0585 154.797 93.1087 154.765C93.159 154.734 93.1965 154.686 93.2145 154.629C93.2325 154.573 93.2299 154.512 93.2071 154.457C93.1843 154.402 93.1428 154.358 93.0901 154.331ZM77.0901 146.331C76.2801 147.107 75.2114 147.556 74.0901 147.591V150.391C74.0901 150.505 74.0448 150.614 73.9641 150.695C73.8835 150.775 73.7741 150.821 73.6601 150.821C73.546 150.821 73.4366 150.775 73.356 150.695C73.2754 150.614 73.2301 150.505 73.2301 150.391C73.2301 149.911 73.0601 145.941 73.0501 145.621C73.0501 144.621 72.6701 142.911 74.0501 142.361C76.5901 141.291 78.9901 144.101 77.0401 146.321L77.0901 146.331ZM81.6901 149.331C81.5501 150.931 79.4001 151.621 78.1201 150.671C78.0288 150.599 77.9675 150.495 77.9479 150.381C77.9284 150.266 77.9519 150.148 78.0141 150.05C78.0762 149.952 78.1726 149.88 78.2845 149.849C78.3964 149.818 78.5159 149.829 78.6201 149.881C78.9095 150.074 79.2575 150.162 79.6042 150.127C79.9509 150.092 80.2747 149.938 80.5201 149.691C80.8201 149.381 80.7001 148.761 80.2101 148.831C79.8301 148.939 79.4341 148.98 79.0401 148.951C78.8404 148.904 78.6553 148.809 78.5014 148.673C78.3475 148.538 78.2296 148.366 78.1583 148.174C78.0869 147.982 78.0644 147.775 78.0926 147.572C78.1208 147.369 78.199 147.176 78.3201 147.011C78.4888 146.772 78.7115 146.577 78.9699 146.44C79.2283 146.304 79.5152 146.23 79.8074 146.225C80.0996 146.22 80.3888 146.284 80.6516 146.412C80.9144 146.54 81.1434 146.728 81.3201 146.961C81.6201 147.351 81.0001 147.821 80.7001 147.441C80.5603 147.278 80.3753 147.161 80.1687 147.104C79.9622 147.047 79.7433 147.053 79.5401 147.121C78.6701 147.441 79.2201 148.301 79.8001 148.121C79.9301 148.081 81.7701 147.791 81.6401 149.291L81.6901 149.331ZM162.66 116.071C162.336 116.81 161.965 117.528 161.55 118.221C160.767 117.132 159.752 116.23 158.579 115.579C157.406 114.928 156.104 114.544 154.765 114.455C153.427 114.367 152.085 114.575 150.837 115.065C149.588 115.556 148.464 116.316 147.543 117.292C146.623 118.268 145.93 119.435 145.513 120.71C145.097 121.986 144.967 123.337 145.134 124.668C145.301 125.999 145.76 127.277 146.479 128.409C147.197 129.542 148.157 130.502 149.29 131.221C148.29 132.111 146.22 133.691 145.8 134.021L145.06 133.681C144.73 133.531 144.46 134.021 144.8 134.181C144.954 134.252 145.104 134.333 145.25 134.421C143.991 135.334 142.686 136.181 141.34 136.961C141.27 137 141.218 137.066 141.197 137.144C141.175 137.222 141.185 137.305 141.225 137.376C141.265 137.446 141.331 137.497 141.409 137.519C141.487 137.541 141.57 137.53 141.64 137.491C143.29 136.571 144.71 135.701 145.96 134.851C146.873 135.485 147.723 136.205 148.5 137.001C148.578 137.062 148.677 137.093 148.776 137.087C148.875 137.082 148.969 137.04 149.041 136.97C149.112 136.901 149.155 136.807 149.162 136.708C149.169 136.609 149.14 136.51 149.08 136.431C148.3 135.695 147.461 135.026 146.57 134.431C147.18 133.991 149.13 132.541 150.11 131.681C151.859 132.541 153.837 132.818 155.755 132.471C157.673 132.124 159.429 131.171 160.765 129.752C162.101 128.333 162.947 126.523 163.178 124.588C163.409 122.653 163.014 120.694 162.05 119.001C162.565 118.141 162.993 117.234 163.33 116.291C163.5 115.861 162.83 115.651 162.66 116.071ZM154.25 127.211C154.049 126.535 153.892 125.847 153.78 125.151L151.67 125.361C151.55 125.991 151.43 126.621 151.33 127.251C151.23 127.881 150.41 127.621 150.49 127.081C150.67 125.751 151.74 120.081 151.95 119.541C152.54 118.381 153.43 119.181 153.95 120.491C154.454 122.659 154.848 124.852 155.13 127.061C155.15 127.177 155.123 127.297 155.054 127.394C154.986 127.49 154.882 127.556 154.765 127.576C154.648 127.595 154.529 127.568 154.432 127.5C154.335 127.431 154.27 127.327 154.25 127.211ZM155.96 120.721C156.011 120.603 156.086 120.497 156.18 120.41C156.275 120.323 156.387 120.257 156.509 120.216C156.63 120.175 156.759 120.161 156.887 120.174C157.015 120.187 157.139 120.227 157.25 120.291C157.349 120.357 157.433 120.444 157.496 120.546C157.558 120.648 157.598 120.762 157.612 120.881C157.626 121 157.615 121.12 157.578 121.234C157.542 121.348 157.481 121.452 157.4 121.541C157.275 121.695 157.098 121.8 156.903 121.836C156.708 121.873 156.506 121.839 156.333 121.74C156.16 121.642 156.028 121.486 155.959 121.299C155.891 121.112 155.891 120.907 155.96 120.721ZM157.7 127.111C157.698 127.225 157.656 127.336 157.58 127.422C157.504 127.507 157.4 127.563 157.286 127.579C157.172 127.595 157.057 127.569 156.96 127.507C156.864 127.445 156.793 127.35 156.76 127.241C156.68 127.021 156.53 123.941 156.53 123.581C156.53 123.477 156.571 123.378 156.644 123.305C156.717 123.232 156.817 123.191 156.92 123.191C157.023 123.191 157.123 123.232 157.196 123.305C157.269 123.378 157.31 123.477 157.31 123.581C157.34 124.151 157.71 126.941 157.7 127.111Z" fill="white"/>
<path d="M151.87 124.37L153.61 124.18C153.436 122.96 153.141 121.761 152.73 120.6C152.5 121.6 152.08 123.38 151.87 124.37ZM55.4999 167.44C54.6599 167.94 55.3499 169.3 56.4999 168.79C56.4999 168.13 56.4399 167.64 56.4199 167.41C56.2754 167.341 56.1164 167.307 55.9563 167.312C55.7962 167.318 55.6397 167.361 55.4999 167.44Z" fill="white"/>
<path d="M65.1602 166.169C63.5049 166.428 61.8349 166.582 60.1602 166.629C59.7102 158.759 48.4502 158.749 47.9902 166.629C46.2529 166.462 44.5431 166.079 42.9002 165.489C42.8693 165.474 42.8357 165.464 42.8011 165.461C42.7666 165.459 42.7318 165.463 42.6989 165.473C42.6659 165.484 42.6354 165.501 42.609 165.524C42.5826 165.546 42.5609 165.574 42.5452 165.604C42.5294 165.635 42.5199 165.669 42.5171 165.703C42.5144 165.738 42.5185 165.773 42.5292 165.806C42.5398 165.839 42.5569 165.869 42.5794 165.896C42.6019 165.922 42.6293 165.944 42.6602 165.959C44.3265 166.842 46.1522 167.382 48.0302 167.549C48.2195 169.018 48.937 170.366 50.0487 171.344C51.1603 172.321 52.5899 172.861 54.0702 172.861C55.5505 172.861 56.9801 172.321 58.0917 171.344C59.2033 170.366 59.9209 169.018 60.1102 167.549C61.8513 167.372 63.5808 167.095 65.2902 166.719C65.349 166.69 65.3962 166.642 65.4241 166.583C65.452 166.524 65.459 166.456 65.444 166.393C65.4289 166.329 65.3926 166.272 65.3411 166.231C65.2895 166.191 65.2258 166.169 65.1602 166.169ZM53.1602 169.359C53.1466 169.427 53.1189 169.491 53.0788 169.547C53.0388 169.603 52.9874 169.65 52.9279 169.685C52.8685 169.72 52.8023 169.742 52.7338 169.75C52.6652 169.757 52.5958 169.75 52.5302 169.729C52.2302 169.639 52.2802 169.469 51.8002 168.789C51.6502 169.039 51.5002 169.299 51.3602 169.559C51.3054 169.649 51.2183 169.714 51.1169 169.741C51.0155 169.768 50.9076 169.756 50.8153 169.706C50.723 169.656 50.6534 169.572 50.6208 169.472C50.5882 169.373 50.5952 169.264 50.6402 169.169C50.8302 168.809 51.0202 168.439 51.2302 168.079C50.9835 167.822 50.7084 167.594 50.4102 167.399C50.3124 167.331 50.2444 167.227 50.2202 167.11C50.1959 166.993 50.2172 166.871 50.2796 166.769C50.342 166.667 50.441 166.593 50.5563 166.562C50.6715 166.53 50.7945 166.543 50.9002 166.599C52.1502 167.369 51.3802 167.459 52.3302 166.279C52.7202 165.799 53.4602 166.389 53.1402 166.879C52.9202 167.219 52.6402 167.569 52.4002 167.879C52.8902 168.509 53.2102 168.999 53.1502 169.359H53.1602ZM57.4202 169.479C57.2073 169.671 56.9557 169.815 56.6823 169.902C56.4089 169.988 56.1202 170.014 55.8357 169.979C55.5512 169.944 55.2776 169.848 55.0333 169.698C54.7891 169.548 54.58 169.347 54.4202 169.109C54.2166 168.809 54.1086 168.454 54.1104 168.091C54.1122 167.728 54.2237 167.374 54.4302 167.075C54.6368 166.777 54.9287 166.548 55.2678 166.418C55.6069 166.289 55.9772 166.265 56.3302 166.349C56.2437 165.268 56.2136 164.184 56.2402 163.099C56.2417 162.984 56.2859 162.873 56.3643 162.787C56.4426 162.702 56.5497 162.649 56.6649 162.638C56.7801 162.627 56.8953 162.658 56.9886 162.727C57.0818 162.796 57.1465 162.896 57.1702 163.009C57.3802 164.319 57.5402 168.159 57.5602 168.599C57.5802 168.829 57.6802 169.209 57.4102 169.479H57.4202ZM38.7302 110.359C38.9102 110.359 38.9602 110.359 38.9702 110.299C38.9702 110.129 38.6302 107.879 38.5902 107.609C35.7502 107.999 36.1102 110.619 38.7302 110.359Z" fill="white"/>
<path d="M45.8002 100.88C44.6146 101.042 43.4394 101.273 42.2802 101.57C41.348 100.665 40.2115 99.9971 38.9668 99.6239C37.7221 99.2508 36.4058 99.183 35.1293 99.4262C33.8528 99.6695 32.6537 100.217 31.6335 101.021C30.6132 101.826 29.8018 102.865 29.268 104.05C28.7341 105.234 28.4935 106.53 28.5665 107.828C28.6395 109.125 29.0239 110.386 29.6873 111.503C30.3506 112.62 31.2734 113.562 32.3775 114.247C33.4816 114.932 34.7345 115.341 36.0302 115.44C37.1585 118.617 39.1245 121.429 41.7202 123.58C41.7438 123.603 41.7718 123.621 41.8024 123.633C41.833 123.645 41.8658 123.651 41.8987 123.651C41.9317 123.65 41.9642 123.644 41.9945 123.63C42.0248 123.617 42.0522 123.599 42.0752 123.575C42.0982 123.551 42.1163 123.523 42.1285 123.493C42.1406 123.462 42.1467 123.429 42.1462 123.396C42.1457 123.363 42.1388 123.331 42.1257 123.301C42.1127 123.27 42.0938 123.243 42.0702 123.22C39.9053 120.954 38.1524 118.328 36.8902 115.46C38.3974 115.403 39.859 114.928 41.1111 114.087C42.3632 113.246 43.3565 112.073 43.9794 110.699C44.6024 109.326 44.8304 107.806 44.638 106.31C44.4457 104.814 43.8404 103.401 42.8902 102.23C43.9502 101.95 44.8902 101.7 45.8902 101.51C46.3702 101.43 46.2002 100.8 45.8002 100.88ZM33.3202 111V103.56C33.3356 103.461 33.3859 103.371 33.462 103.306C33.5381 103.24 33.635 103.205 33.7352 103.205C33.8354 103.205 33.9323 103.24 34.0084 103.306C34.0845 103.371 34.1348 103.461 34.1502 103.56C34.1502 105.04 34.3202 110 34.3502 111C34.3156 111.109 34.2471 111.205 34.1545 111.273C34.0619 111.341 33.95 111.378 33.8352 111.378C33.7203 111.378 33.6085 111.341 33.5159 111.273C33.4233 111.205 33.3547 111.109 33.3202 111ZM39.4402 111.1C37.4402 112.17 34.7702 110.26 36.0302 108.03C36.3065 107.633 36.6765 107.31 37.1073 107.09C37.5382 106.871 38.0166 106.761 38.5002 106.77C38.3331 105.68 38.2329 104.582 38.2002 103.48C38.2055 103.372 38.2489 103.269 38.3227 103.189C38.3966 103.11 38.4962 103.059 38.6038 103.046C38.7115 103.033 38.8204 103.058 38.9112 103.117C39.002 103.176 39.069 103.266 39.1002 103.37C39.2702 104.09 39.7502 108.88 39.8002 109.51C39.8202 110 40.0402 110.73 39.4402 111.05V111.1Z" fill="white"/>
</svg>
