<svg width="201" height="200" viewBox="0 0 201 200" fill="none" xmlns="http://www.w3.org/2000/svg">
<path d="M195.4 13.4821C195.324 11.5911 195.183 9.70105 195.053 7.81105C195.053 5.60405 193.225 5.14005 192.239 6.04005C185.046 12.8081 172.813 23.4231 166.164 29.2401C165.917 29.4582 165.742 29.746 165.661 30.0656C165.581 30.3852 165.599 30.7217 165.713 31.0308C165.828 31.34 166.033 31.6072 166.302 31.7975C166.571 31.9878 166.891 32.0923 167.221 32.0971C167.176 32.2641 167.134 32.4331 167.097 32.6051C155.592 36.9313 143.865 40.6415 131.965 43.7201C129.499 44.3641 122.898 45.9611 122.071 46.1621C122.306 45.4982 122.768 44.9393 123.377 44.5851C126.301 42.5421 127.001 42.8851 128.385 41.4571C128.697 41.1284 128.884 40.7012 128.914 40.2493C128.944 39.7974 128.815 39.3492 128.55 38.9821C127.967 38.3351 126.826 38.2291 126.609 37.4571C126.166 35.8651 128.929 33.4571 128.785 31.3111C128.621 28.8691 125.485 25.5591 120.718 24.8681C118.003 24.4366 115.232 24.5105 112.544 25.0861C110.526 25.5034 108.679 26.5171 107.244 27.9961C106.115 29.1691 104.42 30.5381 103.85 32.0961C103.51 32.9961 103.396 34.0351 102.65 34.5481C102.352 34.7083 102.024 34.8049 101.687 34.8317C101.35 34.8586 101.011 34.8151 100.691 34.7041C97.271 33.8411 95.204 30.3241 91.935 28.7981C90.4802 28.1403 88.8706 27.9022 87.2877 28.1107C85.7049 28.3192 84.2118 28.966 82.977 29.9781C82.4125 30.6077 81.7074 31.0952 80.919 31.4011C80.4338 31.4866 79.9357 31.4644 79.46 31.3361C75.752 30.3841 73.245 27.9671 69.675 27.4681C68.0148 27.2425 66.3247 27.4229 64.7495 27.9938C63.1743 28.5647 61.7611 29.5091 60.631 30.7461C60.0765 31.2902 59.6542 31.9544 59.3966 32.6873C59.1389 33.4203 59.0529 34.2026 59.145 34.9741C59.645 37.0661 61.902 38.1071 62.851 38.4581C64.451 39.0501 66.229 39.4751 67.527 40.6211C67.736 40.7765 67.8934 40.9911 67.979 41.2371C68.162 41.8111 67.53 42.3371 66.955 42.4711C66.306 42.5226 65.6608 42.6138 65.023 42.7441C65.0079 42.747 64.9941 42.7549 64.9839 42.7665C64.9737 42.7781 64.9676 42.7927 64.9666 42.8081C64.9656 42.8235 64.9697 42.8388 64.9782 42.8516C64.9868 42.8645 64.9994 42.8741 65.014 42.8791C66.5124 43.4178 68.1094 43.6269 69.696 43.4921C70.4882 43.399 71.2324 43.0635 71.8268 42.5316C72.4212 41.9996 72.8369 41.2971 73.017 40.5201C73.0715 40.0578 73.0932 39.5923 73.082 39.1271C73.264 37.5271 74.329 37.8721 75.643 38.8071C77.0997 39.8607 78.7826 40.559 80.5573 40.8462C82.3321 41.1334 84.1494 41.0015 85.864 40.4611C87.211 40.0301 88.01 38.6391 89.428 38.6391C89.7751 38.6395 90.1151 38.7375 90.4091 38.9219C90.7032 39.1064 90.9395 39.3698 91.091 39.6821C91.2012 40.1258 91.3347 40.5634 91.491 40.9931C87.9596 41.2841 84.4954 42.1256 81.224 43.4871C79.4283 44.2425 77.8314 45.4027 76.558 46.8771C75.2757 46.574 73.9403 46.574 72.658 46.8771C69.458 47.6941 68.44 50.5491 67.95 52.6821C67.946 52.7447 67.9597 52.8072 67.9894 52.8625C68.0191 52.9177 68.0637 52.9636 68.1181 52.9948C68.1726 53.026 68.2347 53.0414 68.2974 53.0391C68.3601 53.0369 68.4209 53.0171 68.473 52.9821C70.3903 51.6069 72.5105 50.5394 74.757 49.8181C73.8668 52.1469 73.7928 54.7087 74.547 57.0851C72.575 57.6031 70.429 58.0671 69.212 59.7281C68.1796 61.2066 67.5846 62.946 67.495 64.7471C67.1604 69.4506 67.7773 74.1733 69.309 78.6331C69.3215 78.6719 69.3397 78.7086 69.363 78.7421C68.1219 79.4162 66.92 80.16 65.763 80.9701C64.9797 81.3847 64.187 81.7847 63.385 82.1701C63.388 82.1475 63.388 82.1246 63.385 82.1021C63.3618 81.796 63.2432 81.505 63.0459 81.27C62.8485 81.035 62.5824 80.8678 62.285 80.7921C61.3845 80.5611 60.4596 80.4386 59.53 80.4271C53.753 79.8631 53.895 79.827 53.016 79.827C52.6497 79.7844 52.2786 79.8373 51.9388 79.9807C51.599 80.124 51.3021 80.3529 51.077 80.6451C51.0046 80.7699 50.9604 80.9092 50.9476 81.053C50.9349 81.1968 50.9538 81.3416 51.0031 81.4773C51.0524 81.613 51.1309 81.7362 51.233 81.8383C51.3351 81.9404 51.4583 82.0188 51.594 82.0681C54.283 83.7751 55.037 83.2841 57.044 84.7051C42.485 89.4751 29.434 87.1581 28.304 87.3871C28.0971 87.4822 27.9059 87.6083 27.737 87.7611C26.8832 87.0668 25.9827 86.432 25.042 85.8611C24.7131 85.6656 24.3321 85.5758 23.9505 85.6037C23.5689 85.6316 23.205 85.7759 22.908 86.0171C22.17 86.5611 21.608 87.2391 20.931 87.7951C18.16 90.0711 14.753 91.0701 14.669 92.812C14.622 93.784 15.419 93.841 15.769 93.8661C18.846 94.022 21.043 92.7951 25.38 92.7081C25.656 92.7021 25.698 92.7141 25.78 92.6761C25.895 94.9191 28.029 95.9331 30.153 96.604C45.841 101.588 65.031 101.439 84.725 94.1921C85.5134 93.817 86.3223 93.4868 87.148 93.2031C83.948 97.5301 83.724 97.7271 83.226 98.8201C81.144 98.0361 80.565 97.6971 79.711 97.3631C77.2964 98.3127 74.8063 99.058 72.267 99.591C70.0169 100.067 67.738 100.396 65.445 100.575C66.296 101.46 65.809 101.142 73.904 108.903C75.8763 111.052 78.1885 112.861 80.748 114.259C82.533 115.18 84.4995 115.696 86.507 115.769C88.3879 115.659 90.201 115.027 91.743 113.944C94.8134 111.836 97.5735 109.309 99.943 106.436C104.78 100.595 105.373 100.487 108.931 93.8101C109.731 94.3101 116.9 93.2951 120.807 83.4841C121.808 80.8094 122.672 78.0855 123.396 75.3231C124.902 70.4751 125.94 65.494 126.496 60.4481C132.112 59.0781 135.306 57.2171 144.316 52.8611C150.175 50.0595 155.794 46.7819 161.116 43.0611C164.031 40.9492 166.73 38.555 169.174 35.9131C169.217 35.8478 169.238 35.7709 169.235 35.6931C170.011 35.3817 170.688 34.8657 171.194 34.2001C171.7 33.5344 172.016 32.744 172.108 31.9131C172.489 31.913 172.869 31.9401 173.246 31.9941C168.105 43.7241 156.5 59.062 148.574 69.7821C124.974 101.663 90.559 141.774 55.792 160.511C54.934 160.967 47.339 165.367 46.818 164.857L51.087 169.202C42.1712 175.181 32.0751 179.175 21.482 180.914C21.392 180.921 21.3074 180.96 21.243 181.023C21.2238 181.062 21.2138 181.105 21.2138 181.148C21.2138 181.191 21.2238 181.234 21.243 181.273C21.543 182.798 22.543 183.036 27.435 187.273C21.569 190.638 15.18 192.778 5.5 193.908V194.115C18.277 195.462 30.347 191.692 36.225 188.324C34.139 186.51 31.379 185.369 29.282 183.544C36.116 181.86 52.174 177.535 61.626 171.267C60.214 169.833 56.759 167.649 55.335 166.215C55.824 166.758 65.048 161.673 66.026 161.163C87.2 149.972 105.48 135.901 123.684 118.172C129.507 112.512 135.284 106.949 140.719 100.963C148.037 92.899 164.589 73.2121 179.364 52.7351C182.626 48.4373 185.602 43.9299 188.273 39.2421C188.511 38.7661 188.837 38.8291 189.034 39.3071C189.479 40.3931 189.87 41.3711 190.24 42.4071C190.364 42.7423 190.595 43.0278 190.896 43.2202C191.197 43.4127 191.553 43.5015 191.91 43.4732C192.266 43.4449 192.603 43.3011 192.871 43.0635C193.138 42.826 193.32 42.5077 193.39 42.1571C195.101 32.7003 195.775 23.085 195.4 13.4821ZM25.791 92.1211C23.7045 92.0367 21.6169 92.2612 19.596 92.7871C18.3462 93.0295 17.077 93.159 15.804 93.174C15.324 93.123 15.495 92.594 15.689 92.355C16.874 91.082 17.74 91.19 21.765 88.104C22.484 87.479 23.423 86.1421 24.34 86.4041C24.8578 86.6224 25.3374 86.9218 25.761 87.2911L27.28 88.354C26.5341 89.4961 26.0275 90.7776 25.791 92.1211ZM57.591 84.5291C57.2925 84.0365 56.8268 83.6677 56.279 83.4901C54.8101 82.977 53.3974 82.3152 52.063 81.5151C51.927 81.423 51.771 81.2831 51.799 81.1351C51.836 80.9351 52.152 80.7061 52.472 80.6351C53.092 80.5411 53.118 80.5901 61.035 81.3721C61.823 81.4491 62.596 81.5721 62.646 82.1271C62.6455 82.1906 62.6622 82.2531 62.6942 82.308C62.7262 82.3629 62.7724 82.4082 62.828 82.4391C61.1221 83.2307 59.3741 83.9284 57.592 84.5291H57.591ZM116.141 34.0621C117.208 33.5631 118.248 33.0104 119.259 32.4061C119.641 32.2196 120.066 32.1391 120.489 32.173C120.913 32.207 121.32 32.3541 121.667 32.5991C121.543 32.6475 121.433 32.7258 121.347 32.827C121.261 32.9282 121.201 33.0491 121.173 33.1791C121.171 33.248 121.193 33.3155 121.235 33.3701C121.278 33.4247 121.337 33.4631 121.404 33.4788C121.472 33.4945 121.542 33.4866 121.604 33.4565C121.666 33.4263 121.716 33.3756 121.745 33.3131C121.772 33.2591 121.816 33.2156 121.87 33.1897C121.925 33.1638 121.986 33.1568 122.045 33.1701C122.219 33.2224 122.377 33.3169 122.505 33.4451C122.599 33.5405 122.719 33.6065 122.85 33.6351C122.901 33.6377 122.951 33.6277 122.997 33.6058C123.043 33.584 123.083 33.5511 123.113 33.5101L123.274 33.5471C124.162 35.2136 124.717 37.0373 124.907 38.9161C124.964 39.7107 124.851 40.5084 124.575 41.2557C124.299 42.0031 123.867 42.683 123.307 43.2501C121.916 44.4651 120.737 44.3211 120.085 45.4501C119.565 46.2171 120.47 45.8071 118.578 45.8211C116.883 45.8419 115.213 45.4074 113.743 44.5631C114.088 44.3667 114.454 44.2101 114.834 44.0961C115.38 43.9236 115.852 43.5711 116.172 43.0961C116.371 42.6128 116.387 42.0737 116.217 41.5795C116.047 41.0854 115.703 40.67 115.249 40.4111C114.938 40.2411 114.663 40.0133 114.438 39.7401C113.458 38.1891 115.405 35.7661 114.064 34.0401C114.39 34.1887 114.743 34.2674 115.101 34.2712C115.459 34.275 115.813 34.2037 116.142 34.0621H116.141ZM110.333 38.4351C110.926 38.229 112.156 39.0721 112.466 39.5421C112.894 40.1861 114.235 41.8711 114.237 42.5201C114.204 42.6898 114.136 42.8507 114.037 42.9923C113.938 43.1339 113.81 43.2531 113.662 43.3421C113.41 43.4921 113.165 43.6524 112.926 43.8231C112.71 43.5732 112.515 43.3056 112.343 43.0231C112.64 42.7192 112.854 42.3438 112.963 41.9331C112.966 41.9225 112.966 41.9115 112.964 41.9008C112.962 41.8902 112.957 41.8802 112.95 41.8716C112.944 41.8629 112.935 41.856 112.925 41.8512C112.916 41.8465 112.905 41.844 112.894 41.8441C110.416 41.8431 109.388 38.7611 110.334 38.4351H110.333ZM92.489 41.6491C93.677 41.9491 93.8 41.0421 102.895 41.7691C105.433 42.4141 108.201 43.7521 110.322 43.7641C110.142 44.4041 109.914 45.9891 109.183 48.5241C106.199 47.7922 103.114 47.5674 100.056 47.8591C100.012 47.8126 99.9556 47.7805 99.8932 47.7669C99.8309 47.7534 99.766 47.759 99.7069 47.783C99.6479 47.807 99.5975 47.8483 99.5623 47.9015C99.5272 47.9547 99.5089 48.0173 99.51 48.0811C99.5237 48.5869 99.5701 49.0912 99.649 49.5911C98.4538 48.8527 97.3776 47.9373 96.457 46.8761C96.3929 46.8286 96.3147 46.8042 96.2351 46.8067C96.1554 46.8093 96.0789 46.8386 96.018 46.8901C94.6155 48.167 92.9512 49.1223 91.1412 49.6894C89.3313 50.2564 87.4194 50.4215 85.539 50.1731C85.4792 50.1732 85.4204 50.1889 85.3685 50.2187C85.3166 50.2485 85.2734 50.2913 85.2431 50.3429C85.2128 50.3945 85.1965 50.4531 85.1958 50.5129C85.1951 50.5728 85.21 50.6317 85.239 50.6841C86.3371 52.2231 87.7449 53.5154 89.372 54.4781C89.518 54.9041 89.6487 55.3344 89.764 55.7691C89.764 55.7691 88.94 55.8171 88.595 55.8321C88.5352 55.8412 88.479 55.8668 88.4329 55.9061C88.3868 55.9453 88.3526 55.9966 88.334 56.0542C88.3154 56.1119 88.3133 56.1735 88.3277 56.2323C88.3422 56.2911 88.3728 56.3447 88.416 56.3871C92.123 61.3661 92.942 65.3651 94.216 68.9431C94.3071 69.1997 94.3371 69.474 94.3038 69.7442C94.2704 70.0145 94.1747 70.2732 94.024 70.5001C93.5706 71.3863 92.8228 72.0871 91.909 72.4821C91.502 72.5671 90.888 72.1821 90.581 72.0111C87.5764 70.5997 84.764 68.811 82.212 66.688C79.7841 64.7023 77.7737 62.2552 76.297 59.4881C75.4637 57.9863 74.9726 56.3189 74.8587 54.6053C74.7448 52.8916 75.0109 51.1739 75.638 49.5751C76.4789 49.3675 77.336 49.2323 78.2 49.1711C79.6149 49.4353 80.9673 49.9642 82.186 50.7301C82.2528 50.7693 82.3316 50.7828 82.4077 50.7681C82.4838 50.7533 82.5518 50.7113 82.5991 50.6499C82.6464 50.5885 82.6696 50.512 82.6644 50.4347C82.6592 50.3574 82.626 50.2846 82.571 50.2301C81.371 48.5741 79.585 47.6921 77.214 47.0381C80.911 43.2791 87.236 42.0881 92.489 41.6491ZM112.422 54.0191L115.022 57.9531C114.702 58.8057 114.365 59.6527 114.01 60.4941C113.14 58.4019 111.907 56.4798 110.369 54.8161C110.835 53.3161 111.299 51.7891 111.675 50.2591C112.938 51.6381 113.967 53.2142 114.721 54.9251C115.221 56.0151 115.121 56.0841 115.436 56.8171L115.322 57.1371L113.006 53.6371C112.981 53.5987 112.948 53.5657 112.91 53.54C112.872 53.5143 112.829 53.4963 112.784 53.4871C112.739 53.4779 112.693 53.4777 112.647 53.4864C112.602 53.4952 112.559 53.5127 112.521 53.5381C112.483 53.5634 112.45 53.596 112.424 53.6341C112.398 53.6722 112.38 53.715 112.371 53.76C112.362 53.8051 112.362 53.8515 112.37 53.8966C112.379 53.9417 112.397 53.9847 112.422 54.0231V54.0191ZM108.677 63.7381L110.643 67.3621C109.367 69.7157 107.952 71.9919 106.408 74.1791L104.449 69.8791C104.91 69.0077 105.35 68.1254 105.769 67.2321L107.088 69.5961C107.133 69.6772 107.209 69.7371 107.298 69.7625C107.388 69.7879 107.483 69.7768 107.564 69.7316C107.646 69.6863 107.706 69.6107 107.731 69.5214C107.756 69.432 107.745 69.3362 107.7 69.2551C106.418 66.9611 106.223 66.5631 106.127 66.4551C107.027 64.4551 107.997 61.9421 108.673 60.0311L110.543 63.6881C110.564 63.7297 110.592 63.7668 110.627 63.7972C110.662 63.8277 110.703 63.8509 110.747 63.8655C110.791 63.8801 110.837 63.8857 110.884 63.8822C110.93 63.8786 110.975 63.8659 111.016 63.8448C111.058 63.8236 111.094 63.7945 111.124 63.759C111.154 63.7235 111.177 63.6825 111.191 63.6382C111.205 63.5939 111.21 63.5474 111.205 63.5011C111.201 63.4549 111.188 63.41 111.166 63.3691L108.991 59.1161C109.131 58.7054 109.269 58.2917 109.405 57.8751L111.052 60.7751C111.075 60.815 111.105 60.8502 111.141 60.8784C111.178 60.9067 111.219 60.9275 111.264 60.9397C111.308 60.9519 111.354 60.9553 111.4 60.9496C111.445 60.9439 111.49 60.9293 111.53 60.9066C111.569 60.8838 111.605 60.8535 111.633 60.8172C111.661 60.7809 111.682 60.7394 111.694 60.695C111.706 60.6507 111.71 60.6044 111.704 60.5588C111.698 60.5131 111.684 60.469 111.661 60.4291L109.7 56.9681C109.745 56.8251 110.13 55.5921 110.13 55.5921C111.63 57.2963 112.817 59.2516 113.638 61.3681C112.852 63.1601 111.989 64.9164 111.05 66.6371L109.292 63.4011C109.271 63.3597 109.241 63.3229 109.205 63.2931C109.17 63.2632 109.128 63.2407 109.084 63.227C109.039 63.2133 108.993 63.2087 108.946 63.2133C108.9 63.2179 108.855 63.2318 108.814 63.254C108.773 63.2762 108.737 63.3064 108.708 63.3428C108.679 63.3791 108.657 63.4209 108.644 63.4657C108.632 63.5105 108.628 63.5574 108.634 63.6037C108.639 63.6499 108.654 63.6946 108.677 63.7351V63.7381ZM98.439 71.5011C98.4863 71.4484 98.5313 71.3924 98.574 71.3331C98.662 71.1513 98.6906 70.9464 98.6556 70.7475C98.6206 70.5486 98.5238 70.3658 98.379 70.2251C98.2073 70.1063 98.008 70.0336 97.8002 70.0138C97.5924 69.994 97.383 70.0278 97.192 70.1121C96.8801 70.1877 96.5609 70.229 96.24 70.2351C96.3665 70.1311 96.4713 70.0032 96.5483 69.8587C96.6253 69.7143 96.6732 69.556 96.689 69.3931C96.6559 69.2035 96.5581 69.0313 96.4122 68.9058C96.2663 68.7803 96.0814 68.7094 95.889 68.7051C96.2277 67.6477 96.5477 66.5841 96.849 65.5141C98.297 66.4141 98.449 66.5341 99.64 67.3831C99.9738 67.6936 100.356 67.9473 100.772 68.1341C99.758 70.7891 99.75 70.8221 98.947 72.5641C98.913 72.6451 98.707 73.2361 98.633 73.4051C98.514 73.3347 98.4022 73.253 98.299 73.1611C98.282 73.0871 98.2544 73.0161 98.217 72.9501C99.044 72.453 98.9 71.688 98.439 71.5011ZM97.491 73.4011L97.479 73.4131C96.8938 73.6702 96.2551 73.7818 95.6174 73.7384C94.9797 73.6951 94.362 73.498 93.817 73.1641C93.5425 73.0464 93.2872 72.8879 93.06 72.6941C93.4081 72.4402 93.7173 72.1371 93.978 71.7941C94.442 71.2954 94.7717 70.6871 94.936 70.0261C95.1778 69.7011 95.5243 69.4694 95.917 69.3701C95.864 69.4701 96.017 69.458 95.662 69.7551C95.4303 69.9228 95.2675 70.1691 95.204 70.4481C95.1924 70.4975 95.1917 70.5489 95.2021 70.5985C95.2126 70.6482 95.2338 70.695 95.2644 70.7356C95.2949 70.7761 95.334 70.8095 95.3789 70.8332C95.4237 70.857 95.4733 70.8706 95.524 70.8731C96.1821 70.9346 96.8459 70.876 97.483 70.7001C97.67 70.693 98.024 70.6001 97.858 70.9361C97.7393 71.1462 97.5583 71.3142 97.34 71.4171C97.2874 71.4213 97.2368 71.4387 97.1926 71.4675C97.1484 71.4963 97.1121 71.5356 97.087 71.582C97.0619 71.6284 97.0487 71.6803 97.0487 71.733C97.0487 71.7858 97.0619 71.8377 97.087 71.8841C97.087 72.3231 97.852 72.091 98.101 72.1271C97.9406 72.324 97.7211 72.4643 97.475 72.5271C97.038 72.5471 96.927 72.8521 97.04 73.0661C97.135 73.2511 97.4 73.3071 97.491 73.4071V73.4011ZM95.975 62.3281C95.725 62.2531 92.189 61.5191 92.089 61.4981C91.685 60.6534 91.2477 59.8244 90.777 59.0111C90.8134 58.5814 90.7976 58.1489 90.73 57.7231C91.493 57.8231 92.273 57.8991 93.03 57.9691C94.686 58.1221 95.98 58.2751 97.787 58.5011C97.7137 58.8537 97.6393 59.2047 97.564 59.5541C96.5512 59.3515 95.5285 59.2023 94.5 59.1071C94.4376 59.1019 94.3756 59.1202 94.3262 59.1586C94.2767 59.1969 94.2434 59.2524 94.2328 59.314C94.2223 59.3757 94.2353 59.4391 94.2692 59.4917C94.3031 59.5443 94.3555 59.5822 94.416 59.5981C94.809 59.6981 95.754 59.8051 97.424 60.1761C96.756 63.1881 95.932 66.1201 95.024 69.1001C94.98 69.1381 94.938 69.1761 94.897 69.2141C94.7785 68.5182 94.5564 67.844 94.238 67.2141C93.7481 65.4755 93.127 63.7766 92.38 62.1321C92.893 62.2601 93.407 62.3761 93.918 62.4951C94.5694 62.6782 95.2304 62.8254 95.898 62.9361C95.9731 62.9358 96.0455 62.9083 96.1017 62.8586C96.1579 62.8088 96.1942 62.7403 96.2036 62.6659C96.213 62.5914 96.195 62.5161 96.153 62.4539C96.1109 62.3917 96.0476 62.347 95.975 62.3281ZM89.716 53.7011C90.9551 53.868 92.2022 53.9681 93.452 54.0011C93.832 54.0141 95.88 53.9731 97.272 53.8181C97.482 53.8181 98.398 53.6101 98.686 53.5831C98.6279 54.1342 98.5344 54.681 98.406 55.2201C98.287 55.9031 97.958 57.6701 97.917 57.8711C96.259 57.6711 92.328 57.2041 90.654 57.1561C90.4585 55.9757 90.1443 54.8182 89.716 53.7011ZM90.226 58.0951C89.8927 57.5617 89.5453 57.0331 89.184 56.5091L89.933 56.4681C90.0537 57.0041 90.1513 57.5454 90.226 58.0921V58.0951ZM88.979 53.4421C88.996 53.4821 89.012 53.5231 89.028 53.5631C88.4458 53.1284 87.8936 52.6549 87.375 52.1461C86.968 51.7453 86.585 51.3209 86.228 50.8751C88.3635 51.0441 90.5086 50.7013 92.485 49.8751C92.444 50.1671 92.521 50.2131 92.649 50.4161C92.077 50.9071 92.225 51.4161 92.786 51.6811C93.0381 51.7738 93.3072 51.8114 93.575 51.7911C93.885 51.7841 94.311 51.8071 94.469 52.0741C94.569 52.2381 94.19 52.361 93.984 52.3161C93.33 52.173 93.215 51.9441 93.01 52.0771C92.9649 52.1085 92.9299 52.1523 92.9093 52.2033C92.8887 52.2543 92.8834 52.3101 92.894 52.3641C92.894 52.5641 93.394 53.0431 94.039 53.0431C94.189 53.0405 94.3382 53.0213 94.484 52.9861C94.511 53.0061 94.741 53.1861 94.769 53.1991C94.63 53.2371 94.49 53.2721 94.35 53.3061C92.6643 53.3349 90.9789 53.2329 89.309 53.0011C89.2548 52.9978 89.2006 53.008 89.1513 53.0307C89.102 53.0535 89.0591 53.0881 89.0264 53.1315C88.9938 53.1749 88.9723 53.2256 88.9641 53.2793C88.9558 53.333 88.9609 53.3879 88.979 53.4391V53.4421ZM105.114 55.7231C105.073 55.7196 105.032 55.7249 104.993 55.7386C104.955 55.7523 104.919 55.774 104.89 55.8024C104.86 55.8308 104.837 55.8651 104.822 55.9032C104.806 55.9412 104.799 55.9821 104.801 56.0231C104.803 56.0797 104.824 56.134 104.86 56.1776C104.896 56.2213 104.946 56.252 105.001 56.2651C105.901 56.5191 106.559 56.7651 107.163 56.9901C107.749 57.1241 108.3 57.38 108.78 57.7411C108.668 58.0784 108.554 58.4151 108.438 58.7511L106.711 58.0381C106.668 58.0179 106.621 58.0066 106.574 58.005C106.527 58.0034 106.479 58.0114 106.435 58.0285C106.391 58.0457 106.35 58.0716 106.316 58.1048C106.282 58.138 106.256 58.1778 106.237 58.2216C106.219 58.2655 106.21 58.3126 106.211 58.3601C106.211 58.4075 106.222 58.4544 106.241 58.4978C106.26 58.5412 106.288 58.5803 106.323 58.6127C106.357 58.645 106.398 58.67 106.443 58.6861L108.208 59.4151C107.04 62.874 105.6 66.2349 103.9 69.466L102.363 68.7371C102.321 68.7174 102.276 68.706 102.23 68.7037C102.185 68.7015 102.139 68.7082 102.095 68.7237C102.052 68.7391 102.012 68.763 101.978 68.7939C101.944 68.8247 101.916 68.862 101.896 68.9035C101.877 68.9451 101.865 68.9902 101.863 69.0361C101.861 69.082 101.868 69.128 101.883 69.1713C101.899 69.2146 101.922 69.2545 101.953 69.2886C101.984 69.3227 102.021 69.3504 102.063 69.3701L103.563 70.0831C102.776 71.5244 101.932 72.9324 101.031 74.3071C100.607 73.768 100.129 73.2732 99.605 72.8301C101.147 69.4301 103.766 62.2491 104.405 57.8221C104.454 57.7946 104.495 57.7562 104.527 57.71C104.558 57.6638 104.578 57.611 104.586 57.5556C104.594 57.5003 104.589 57.4439 104.571 57.3909C104.553 57.3379 104.523 57.2897 104.484 57.2501C103.252 56.08 101.957 54.9783 100.604 53.9501C100.604 53.7501 100.604 53.5431 100.594 53.3501C103.666 53.5055 106.689 54.18 109.536 55.3451C109.457 55.6051 109.097 56.7511 108.996 57.0651C107.747 56.4948 106.448 56.0445 105.114 55.7201V55.7231ZM101.728 62.2231C101.154 61.7479 100.529 61.3381 99.864 61.0011C99.3306 60.6725 98.7707 60.3892 98.19 60.1541C98.298 59.6621 98.4023 59.1694 98.503 58.6761C99.2637 59.0789 100.004 59.5198 100.72 59.9971C101.475 60.4976 102.198 61.0447 102.885 61.6351C102.643 62.5151 102.037 64.5801 101.579 65.9291C100.301 64.8829 98.9263 63.9614 97.473 63.1771C97.6777 62.3717 97.872 61.5637 98.056 60.7531C98.222 60.8421 98.389 60.9291 98.556 61.0161C99.5312 61.5268 100.474 62.0972 101.379 62.7241C101.445 62.7586 101.522 62.7679 101.594 62.7502C101.667 62.7326 101.73 62.6891 101.773 62.628C101.816 62.5668 101.835 62.4922 101.826 62.418C101.818 62.3439 101.783 62.2753 101.728 62.2251V62.2231ZM101.393 66.4581C101.254 66.8531 101.108 67.2471 100.959 67.6401C99.7183 66.6363 98.3922 65.7429 96.996 64.9701C97.106 64.5701 97.2133 64.1701 97.318 63.7701C101.063 66.1011 100.507 65.8761 101.393 66.4601V66.4581ZM103.87 57.6251C103.549 58.7251 103.349 59.8131 103.076 60.9131C101.707 59.7985 100.212 58.8487 98.621 58.0831C98.7423 57.4684 98.8573 56.8531 98.966 56.2371C100.455 56.9641 102.706 58.4251 102.729 58.4371C102.768 58.4621 102.811 58.4794 102.856 58.4878C102.901 58.4962 102.947 58.4957 102.992 58.4861C103.037 58.4766 103.08 58.4583 103.118 58.4323C103.156 58.4063 103.188 58.3731 103.214 58.3346C103.239 58.296 103.256 58.2529 103.264 58.2077C103.273 58.1625 103.272 58.1161 103.263 58.0711C103.253 58.0261 103.235 57.9834 103.209 57.9455C103.183 57.9076 103.15 57.8751 103.111 57.8501C101.813 57.0015 100.471 56.2224 99.09 55.5161C99.1807 54.9721 99.2673 54.4284 99.35 53.8851C100.944 55.0228 102.455 56.2734 103.87 57.6271V57.6251ZM99.444 53.1641C99.4371 53.1191 99.4211 53.076 99.3969 53.0375C99.3728 52.999 99.341 52.9658 99.3035 52.94C99.266 52.9143 99.2237 52.8964 99.179 52.8877C99.1344 52.8789 99.0884 52.8794 99.044 52.8891C98.3407 53.0031 97.6353 53.0944 96.928 53.1631C97.9557 52.7514 98.9311 52.2197 99.834 51.5791C99.887 52.2051 99.934 52.8301 99.986 53.5151C99.809 53.4011 99.628 53.2791 99.444 53.1661V53.1641ZM99.3 51.1111C98.0813 51.9707 96.7301 52.625 95.3 53.0481C95.3061 53.0276 95.3091 53.0064 95.309 52.9851C95.309 52.7851 95.309 52.7681 95.022 52.5731C95.385 51.9831 94.986 51.4371 94.364 51.2371C94.012 51.1241 93.21 51.2371 92.964 51.0371C93.0523 50.9314 93.1531 50.8367 93.264 50.7551C93.2934 50.7852 93.3297 50.8076 93.3699 50.8204C93.41 50.8331 93.4526 50.8357 93.494 50.8281H93.512C93.726 50.8751 93.896 50.6281 93.854 50.4081C93.8349 50.3248 93.7944 50.2481 93.7365 50.1853C93.6786 50.1225 93.6054 50.0759 93.524 50.0501C93.4219 50.0287 93.3158 50.0381 93.219 50.0771C93.204 50.0521 93.161 49.9891 93.144 49.9651C93.1014 49.8464 93.0147 49.7486 92.902 49.6921C94.0834 49.1524 95.1856 48.4539 96.178 47.6161C97.216 48.7128 98.4054 49.6556 99.71 50.4161C99.725 50.5311 99.74 50.6431 99.755 50.7711C99.6 50.8791 99.447 51.0011 99.3 51.1111ZM99.332 73.4351C100.569 74.7351 100.95 75.1851 100.95 75.1851C100.95 75.1851 101.994 77.1151 102.228 77.6071C101.037 76.5655 99.904 75.4588 98.835 74.2921C98.987 74.2221 99 74.1401 99.329 73.4351H99.332ZM101.445 74.952C102.366 73.552 103.23 72.1187 104.035 70.6521L105.925 74.799C105.05 75.8833 104.097 76.9029 103.075 77.8501C103.018 77.7491 101.654 75.301 101.442 74.952H101.445ZM110.134 53.3061C108.97 52.7971 106.297 51.9471 105.476 51.7191C105.41 51.7046 105.341 51.7155 105.283 51.7495C105.225 51.7835 105.182 51.8381 105.162 51.9026C105.143 51.967 105.148 52.0365 105.177 52.0972C105.206 52.1578 105.257 52.2053 105.32 52.2301C108.481 53.2701 108.286 53.3471 109.949 53.9521C109.879 54.1931 109.809 54.4351 109.738 54.6761C106.854 53.3956 103.733 52.7354 100.577 52.7381C100.571 52.6171 100.442 50.6161 100.432 50.4951C102.74 50.3526 105.057 50.5102 107.325 50.9641C107.402 50.9658 107.476 50.9382 107.533 50.8869C107.59 50.8356 107.625 50.7644 107.631 50.6881C107.638 50.6181 107.618 50.5481 107.575 50.4924C107.532 50.4367 107.469 50.3994 107.4 50.3881C106.174 50.003 104.894 49.8123 103.609 49.8231C102.528 49.7526 101.443 49.7787 100.366 49.9011C100.278 49.1811 100.318 49.1141 100.219 48.4831C103.921 48.2093 107.642 48.6507 111.177 49.7831C110.835 50.8491 110.471 52.1091 110.131 53.3061H110.134ZM76.39 48.4611C76.4961 48.3418 76.5621 48.1922 76.5786 48.0334C76.5951 47.8746 76.5613 47.7146 76.482 47.5761C77.3661 47.8031 78.2326 48.0936 79.075 48.4451C77.9381 48.4565 76.8061 48.595 75.7 48.8581C75.704 48.8397 75.706 48.8209 75.706 48.8021V48.7771C75.9667 48.7659 76.2125 48.6523 76.39 48.4611ZM68.851 51.9161C69.841 48.7101 71.896 47.0161 75.261 47.3631C75.4605 47.5356 75.6713 47.6946 75.892 47.8391C76.032 47.9451 75.855 48.111 75.7 48.1081C75.364 48.0731 75.352 47.9581 74.953 47.8171C74.8879 47.7977 74.8183 47.7992 74.7541 47.8215C74.6898 47.8437 74.6342 47.8855 74.595 47.9411C74.5665 47.9932 74.5525 48.052 74.5542 48.1114C74.556 48.1708 74.5735 48.2287 74.605 48.2791C74.7578 48.4751 74.9673 48.6193 75.205 48.6921C75.213 48.8041 75.174 48.8681 75.251 48.9701C72.9741 49.6041 70.8134 50.5987 68.851 51.9161ZM72.978 77.9311C70.45 78.1621 71.098 78.0531 70.478 78.1201C70.2748 78.1589 70.0662 78.1589 69.863 78.1201C69.7169 77.8634 69.6155 77.5837 69.563 77.2931C69.099 75.7873 68.7316 74.2536 68.463 72.701C67.9178 69.6745 67.8961 66.5769 68.399 63.5431C68.5921 62.089 69.2502 60.7364 70.275 59.6871C71.485 58.5871 73.244 58.2481 74.796 57.8271C77.073 64.2061 83.669 69.5331 89.796 72.5421C84.5872 75.3998 78.8776 77.2293 72.978 77.9311ZM109.212 82.091C107.26 82.0655 105.317 81.8373 103.412 81.41C98.3554 80.0687 93.852 77.1637 90.545 73.1101C90.5155 73.0315 90.4904 72.9514 90.47 72.8701C90.8251 73.1109 91.2412 73.2461 91.67 73.2601C91.9381 73.2648 92.2034 73.2044 92.443 73.0841C92.8694 73.4875 93.3737 73.7996 93.925 74.0011C95 74.53 96.2406 74.6124 97.376 74.23C97.5303 74.1831 97.6808 74.1242 97.826 74.0541C99.2465 75.7018 100.784 77.2451 102.426 78.6721C102.439 78.7267 102.465 78.7774 102.502 78.8194C102.539 78.8614 102.586 78.8935 102.639 78.9127C102.691 78.9318 102.748 78.9375 102.803 78.9292C102.859 78.9209 102.911 78.8988 102.956 78.8651C106.312 76.326 108.518 72.4751 110.466 69.0751C111.402 67.39 113.435 63.695 114.359 61.6641C115.048 60.1575 115.598 58.5918 116.005 56.9861C116.057 56.9267 116.083 56.8495 116.078 56.7711C115.949 56.0984 115.724 55.4477 115.41 54.8391C114.606 52.857 113.387 51.07 111.835 49.5981C111.886 49.3711 111.601 49.1931 111.465 49.1591C110.964 48.9971 110.457 48.8481 109.946 48.7121C110.432 47.0843 110.771 45.4163 110.96 43.7281C111.309 43.675 111.643 43.5475 111.939 43.3541C112.077 43.6488 112.248 43.9269 112.448 44.1831C112.281 44.3164 112.118 44.4547 111.959 44.5981C111.688 44.8517 111.511 45.1896 111.457 45.5568C111.402 45.9239 111.473 46.2986 111.659 46.6201C111.953 46.9424 112.342 47.1619 112.77 47.2461C113.029 47.3534 113.312 47.392 113.591 47.358C113.87 47.324 114.135 47.2186 114.361 47.0521C114.373 47.043 114.381 47.0307 114.385 47.0167C114.39 47.0027 114.389 46.9877 114.385 46.9737C114.38 46.9598 114.371 46.9477 114.36 46.939C114.348 46.9302 114.334 46.9254 114.319 46.9251C114.037 46.928 113.759 46.8584 113.512 46.7231C113.265 46.5877 113.056 46.3911 112.907 46.1521C112.848 45.942 112.844 45.7201 112.897 45.5083C112.95 45.2965 113.056 45.102 113.207 44.9441C114.557 45.8306 116.122 46.3333 117.736 46.3981C118.416 46.4156 119.094 46.4805 119.765 46.5921C119.765 46.5921 120.146 47.2451 120.183 47.2921C119.973 47.4362 119.773 47.5939 119.583 47.7641C119.453 47.9282 119.367 48.1219 119.331 48.3278C119.295 48.5337 119.31 48.7454 119.376 48.9437C119.442 49.1421 119.557 49.3209 119.709 49.4641C119.861 49.6073 120.047 49.7104 120.249 49.7641C121.664 59.4641 120.008 69.875 115.32 80.771C113.53 81.9802 111.342 82.4529 109.212 82.091ZM167.812 36.2741C159.037 45.2471 147.179 50.6491 136.022 56.0551C133.008 57.6011 129.83 58.804 126.548 59.6411C126.672 57.3437 126.591 55.0398 126.304 52.7571C126.304 52.6898 126.285 52.6239 126.249 52.5671C126.213 52.5103 126.162 52.4649 126.101 52.4362C126.04 52.4076 125.972 52.3969 125.905 52.4053C125.839 52.4138 125.776 52.4411 125.724 52.4841C125.664 52.5244 125.617 52.5807 125.587 52.6466C125.558 52.7126 125.547 52.7855 125.557 52.8571C126.801 61.9291 123.809 71.6931 120.871 81.1201C120.021 83.9488 118.658 86.5974 116.851 88.9341C115.112 91.1436 112.612 92.6251 109.839 93.0891C117.818 79.4891 123.776 64.0071 120.65 48.6761C120.641 48.6321 120.62 48.5915 120.59 48.5582C120.559 48.525 120.521 48.5005 120.478 48.4871C120.435 48.4638 120.386 48.453 120.337 48.456C120.288 48.459 120.241 48.4756 120.2 48.504C120.16 48.5323 120.129 48.5713 120.11 48.6166C120.091 48.6618 120.084 48.7115 120.092 48.7601C119.815 48.2131 120.384 48.0511 120.708 47.7361C121.069 47.9048 121.465 47.9839 121.863 47.9665C122.261 47.9491 122.648 47.8357 122.993 47.6361C123.006 47.6282 123.017 47.6162 123.022 47.6019C123.028 47.5876 123.029 47.5718 123.025 47.5568C123.021 47.5419 123.013 47.5287 123.001 47.5192C122.988 47.5096 122.973 47.5043 122.958 47.5041C122.752 47.4888 122.556 47.4061 122.401 47.2688C122.247 47.1315 122.142 46.9471 122.102 46.7441C148.918 40.9341 166.478 33.3171 167.082 33.3801C167.697 33.9807 168.154 34.7236 168.413 35.5431C168.384 35.7861 168.014 36.0621 167.81 36.2741H167.812ZM171.197 33.0221C170.826 33.8971 170.127 34.5928 169.251 34.9611C169.169 35.0001 169.087 35.0391 169.006 35.0801C168.676 34.2967 168.249 33.5577 167.735 32.8801C167.819 32.3977 167.94 31.9226 168.097 31.4591C168.203 31.228 168.375 31.0328 168.59 30.8971C168.805 30.7614 169.055 30.6909 169.309 30.6943C169.563 30.6977 169.811 30.7748 170.023 30.9162C170.234 31.0576 170.4 31.2573 170.5 31.4911C170.543 31.5643 170.572 31.6445 170.587 31.7281C170.467 31.7976 170.329 31.8326 170.19 31.8291C170.051 31.8255 169.916 31.7837 169.799 31.7081C169.738 31.6763 169.669 31.6624 169.6 31.6678C169.531 31.6732 169.466 31.6977 169.41 31.7386C169.355 31.7796 169.312 31.8352 169.286 31.8992C169.261 31.9633 169.254 32.0332 169.266 32.1011C169.312 32.325 169.307 32.5564 169.252 32.7783C169.197 33.0002 169.093 33.2068 168.947 33.3831C168.899 33.4604 168.881 33.5528 168.898 33.6424C168.914 33.732 168.962 33.8124 169.035 33.8681C169.107 33.9238 169.197 33.9509 169.287 33.944C169.378 33.9372 169.463 33.8969 169.526 33.8311C169.835 33.4694 170.014 33.0144 170.033 32.5391C170.219 32.5602 170.408 32.5432 170.588 32.4891C170.768 32.4349 170.934 32.3448 171.078 32.2241C171.182 32.1648 171.259 32.0677 171.294 31.9531C171.385 31.9441 171.476 31.9371 171.568 31.9311C171.49 32.3084 171.367 32.6748 171.2 33.0221H171.197Z" fill="white"/>
<path d="M117.529 36.6088C117.687 37.2368 118.14 37.8557 118.639 37.3957C119.014 37.0507 118.691 36.0077 118.355 35.7457C118.019 35.4837 117.238 35.4508 117.529 36.6088Z" fill="white"/>
<path d="M121.985 35.26C122.177 35.96 122.747 36.005 122.985 35.691C123.275 35.301 122.969 34.513 122.717 34.231C122.362 33.84 121.676 34.131 121.985 35.26Z" fill="white"/>
<path d="M121.49 36.3412C122.183 37.3512 122.39 37.8362 122.672 38.2822C122.369 38.3478 122.071 38.4377 121.783 38.5512C121.711 38.5771 121.65 38.6269 121.611 38.6921C121.571 38.7573 121.555 38.8341 121.565 38.9097C121.576 38.9853 121.611 39.0552 121.667 39.1077C121.722 39.1601 121.794 39.1921 121.87 39.1982C122.374 39.1419 122.862 38.9848 123.304 38.7362C123.636 38.3712 123.123 37.7012 122.953 37.4182C122.455 36.5427 121.855 35.729 121.167 34.9942C121.121 34.9576 121.064 34.9383 121.005 34.9395C120.947 34.9407 120.891 34.9625 120.847 35.0009C120.802 35.0393 120.773 35.092 120.764 35.1498C120.755 35.2076 120.766 35.2668 120.796 35.3172C121.007 35.6718 121.239 36.0138 121.49 36.3412Z" fill="white"/>
<path d="M116.56 35.8211C116.572 35.8778 116.603 35.9287 116.648 35.9651C116.693 36.0016 116.749 36.0213 116.807 36.0211H116.907C116.949 36.0211 116.99 36.0109 117.026 35.9913C117.063 35.9716 117.094 35.9432 117.116 35.9086C117.139 35.874 117.153 35.8343 117.157 35.793C117.16 35.7517 117.154 35.7101 117.137 35.6721C117.137 35.4039 117.228 35.1437 117.396 34.9344C117.564 34.7252 117.798 34.5793 118.059 34.5211C118.566 34.5211 118.717 34.2121 118.572 33.9801C118.558 33.9447 118.536 33.913 118.508 33.8871C118.235 33.8112 117.945 33.8168 117.674 33.9031C117.404 33.9894 117.164 34.1527 116.985 34.3731C116.807 34.5646 116.675 34.7953 116.601 35.0467C116.528 35.2981 116.513 35.5633 116.56 35.8211Z" fill="white"/>
<path d="M118.241 38.9802C118.353 40.3141 118.952 41.5601 119.924 42.4802C120.516 42.9332 121.178 42.6602 121.773 42.2052C122.348 41.7788 122.836 41.2478 123.213 40.6402C123.246 40.5726 123.254 40.4959 123.237 40.423C123.219 40.3501 123.177 40.2854 123.118 40.2398C123.058 40.1943 122.985 40.1706 122.91 40.1729C122.835 40.1751 122.763 40.2031 122.706 40.2522C122.185 40.9413 121.539 41.5258 120.8 41.9752C120.683 42.0074 120.558 42.0029 120.442 41.9621C120.327 41.9214 120.227 41.8464 120.155 41.7472C119.603 41.1171 119.213 40.362 119.017 39.5472C119.6 39.8055 120.222 39.9654 120.856 40.0202C121.702 40.2145 122.589 40.0898 123.348 39.6702C123.641 39.5082 123.356 38.9702 123.079 39.1782C122.396 39.4662 121.639 39.5278 120.918 39.3542C120.149 39.2651 119.407 39.0092 118.746 38.6042C118.688 38.5777 118.623 38.5674 118.56 38.5744C118.496 38.5813 118.435 38.6052 118.383 38.6435C118.332 38.6819 118.291 38.7333 118.267 38.7925C118.242 38.8517 118.233 38.9165 118.241 38.9802Z" fill="white"/>
<path d="M52.6995 64.001C56.0605 65.013 60.1995 64.62 62.9505 62.14C64.395 60.8041 65.6111 59.2408 66.5505 57.512C66.7245 57.279 66.5925 56.884 66.1455 56.961C63.8602 57.3419 61.5306 57.3783 59.2345 57.069C59.1761 57.0677 59.1184 57.0809 59.0663 57.1073C59.0143 57.1338 58.9696 57.1727 58.9362 57.2206C58.9029 57.2685 58.8819 57.3239 58.8751 57.3819C58.8684 57.4399 58.876 57.4987 58.8975 57.553C57.7745 59.1491 56.1493 60.3232 54.2812 60.888C52.4131 61.4528 50.4097 61.3757 48.5905 60.669C48.5207 60.6553 48.4484 60.6629 48.3828 60.6906C48.3173 60.7183 48.2616 60.765 48.2228 60.8247C48.184 60.8843 48.1639 60.9542 48.1651 61.0254C48.1663 61.0965 48.1887 61.1657 48.2295 61.224C49.3611 62.6302 50.9375 63.6095 52.6995 64.001ZM65.4995 57.752C64.5043 59.4146 63.217 60.8839 61.6995 62.089C61.7192 62.045 61.7289 61.9973 61.7278 61.9491C61.7267 61.901 61.7149 61.8537 61.6933 61.8107C61.6716 61.7677 61.6407 61.7301 61.6027 61.7006C61.5646 61.671 61.5205 61.6503 61.4735 61.64C61.3676 61.5786 61.2539 61.5318 61.1355 61.501C61.146 61.3237 61.116 61.1464 61.0477 60.9825C60.9794 60.8186 60.8747 60.6724 60.7415 60.555C60.4631 60.3538 60.1205 60.262 59.7788 60.2971C59.4372 60.3321 59.1203 60.4915 58.8885 60.745C58.4365 61.12 58.0305 61.727 57.5105 61.537C57.2455 61.447 57.2745 61.337 57.2915 61.271C57.3435 61.1411 57.4217 61.0233 57.5211 60.9249C57.6205 60.8265 57.7391 60.7496 57.8695 60.699C57.8874 60.7282 57.9111 60.7533 57.9391 60.773C57.9672 60.7926 57.999 60.8062 58.0325 60.813C58.1395 60.838 58.2005 60.789 58.3025 60.713C58.5725 60.521 58.2785 60.102 57.9105 60.075C57.5911 60.1008 57.2915 60.2398 57.0655 60.467C56.9955 60.4766 56.9245 60.4766 56.8545 60.467H56.7435C57.8084 59.7787 58.7187 58.8766 59.4165 57.818C61.4361 58.0651 63.4796 58.0433 65.4935 57.753L65.4995 57.752ZM56.3835 60.959C56.4156 61.0011 56.4588 61.0336 56.5082 61.0526C56.5576 61.0717 56.6114 61.0767 56.6635 61.067C56.6076 61.2967 56.6444 61.5392 56.7658 61.742C56.8873 61.9448 57.0836 62.0917 57.3125 62.151C58.1125 62.429 58.7955 61.732 59.0285 61.491C59.2359 61.2444 59.5046 61.0568 59.8075 60.947C59.9259 60.9066 60.0549 60.9108 60.1704 60.9589C60.2858 61.0069 60.3798 61.0955 60.4345 61.208C60.4842 61.3254 60.4871 61.4574 60.4427 61.5769C60.3982 61.6964 60.3098 61.7945 60.1955 61.851C59.8912 61.9512 59.5729 62.0022 59.2525 62.002C59.163 61.9932 59.0736 62.0196 59.0032 62.0756C58.9328 62.1316 58.887 62.2128 58.8755 62.302C58.8697 62.3754 58.8912 62.4485 58.9359 62.5071C58.9805 62.5658 59.0451 62.6059 59.1175 62.62C59.4352 62.7124 59.7724 62.7136 60.0907 62.6234C60.409 62.5332 60.6955 62.3553 60.9175 62.11C61.1885 62.19 61.2175 62.297 61.3935 62.299C60.4658 62.9311 59.422 63.3729 58.3225 63.599C56.6421 63.922 54.9107 63.8663 53.2545 63.436C51.9459 63.1985 50.7261 62.611 49.7245 61.736C51.9741 62.2325 54.3281 61.8705 56.3245 60.721C56.3116 60.8045 56.3305 60.8898 56.3775 60.96L56.3835 60.959Z" fill="white"/>
<path d="M20.3313 59.8755C20.338 59.9429 20.3637 60.007 20.4054 60.0604C20.4471 60.1137 20.5031 60.1542 20.5669 60.177C20.6307 60.1998 20.6996 60.2041 20.7657 60.1893C20.8318 60.1745 20.8923 60.1413 20.9403 60.0935C22.9132 57.8886 25.3443 56.1419 28.0633 54.9755C29.3707 54.4305 30.7852 54.1911 32.1991 54.2755C33.613 54.3599 34.989 54.7659 36.2223 55.4625C36.288 55.4961 36.3621 55.5096 36.4355 55.5014C36.5088 55.4931 36.5781 55.4635 36.6347 55.4162C36.6913 55.3688 36.7328 55.3059 36.7539 55.2352C36.7749 55.1644 36.7747 55.0891 36.7533 55.0185C36.135 53.3054 35.3195 51.6701 34.3233 50.1455C34.292 50.1066 34.2533 50.0744 34.2094 50.0507C34.1654 50.027 34.1172 50.0124 34.0676 50.0076C34.0179 50.0029 33.9678 50.0081 33.9202 50.023C33.8725 50.038 33.8284 50.0622 33.7903 50.0945C30.6663 49.1167 27.2857 49.3807 24.3513 50.8315C22.8643 51.453 21.6741 52.6238 21.0283 54.1005C20.375 55.951 20.137 57.9227 20.3313 59.8755ZM33.8193 50.7005C34.5472 51.8829 35.1824 53.12 35.7193 54.4005C33.5534 53.4304 31.1126 53.2644 28.8353 53.9325C28.8728 53.8876 28.8934 53.831 28.8933 53.7725C28.8933 53.5205 28.8383 53.5725 28.7203 53.2935C28.896 53.2404 29.059 53.1521 29.1995 53.034C29.3399 52.9159 29.4549 52.7704 29.5373 52.6065C29.8303 51.8845 29.0063 51.2065 28.1323 51.1005C27.9337 51.092 27.7359 51.0699 27.5403 51.0345C27.4912 51.0186 27.4502 50.9843 27.4257 50.9388C27.4013 50.8933 27.3954 50.8402 27.4093 50.7905C27.554 50.5774 27.7682 50.4212 28.0153 50.3485C28.039 50.3408 28.0613 50.3293 28.0813 50.3145C29.9985 50.0053 31.9608 50.1373 33.8193 50.7005ZM26.8503 50.5825C26.6613 51.0985 26.9193 51.5825 27.6313 51.6915C28.0278 51.6668 28.4201 51.7838 28.7383 52.0215C28.8113 52.0855 28.9773 52.2465 28.9383 52.3375C28.7013 52.7985 27.8783 52.7455 27.4143 52.3765C27.3743 52.3514 27.3294 52.3352 27.2826 52.3291C27.2358 52.323 27.1882 52.3271 27.1431 52.341C27.098 52.355 27.0564 52.3785 27.0213 52.41C26.9861 52.4415 26.9581 52.4802 26.9393 52.5235C26.9249 52.5741 26.9219 52.6272 26.9306 52.6791C26.9392 52.731 26.9593 52.7803 26.9893 52.8235C27.1319 52.9844 27.3059 53.1146 27.5005 53.2061C27.6951 53.2976 27.9064 53.3484 28.1213 53.3555C28.1513 53.4995 28.2062 53.6372 28.2833 53.7625C28.3112 53.8215 28.3509 53.8742 28.3999 53.9174C28.4489 53.9605 28.5062 53.9932 28.5683 54.0135C25.6779 55.0747 23.0686 56.7833 20.9403 59.0085C20.8948 57.5627 21.075 56.1187 21.4743 54.7285C21.7632 53.963 22.2066 53.2652 22.7767 52.6784C23.3468 52.0916 24.0315 51.6284 24.7883 51.3175C25.4568 51.0225 26.146 50.7768 26.8503 50.5825Z" fill="white"/>
<path d="M186.107 52.5778C186.132 52.5026 186.139 52.4226 186.127 52.3444C186.115 52.2661 186.085 52.1918 186.038 52.1275C185.992 52.0633 185.931 52.0109 185.861 51.9748C185.79 51.9387 185.712 51.9198 185.633 51.9198C185.522 51.9103 185.41 51.9384 185.317 51.9997C185.223 52.061 185.153 52.1518 185.117 52.2578C166.145 107.694 132.245 156.601 80.534 185.101C80.4151 185.182 80.3307 185.304 80.2976 185.444C80.2646 185.584 80.2851 185.731 80.3553 185.857C80.4255 185.982 80.5402 186.077 80.6768 186.122C80.8133 186.167 80.9619 186.16 81.093 186.101C131.885 158.717 167.569 108.193 186.107 52.5778Z" fill="white"/>
<path d="M188.384 48.6563C184.446 91.6143 167.812 132.428 140.6 165.9C138.432 168.557 138.455 168.443 138.455 168.694C138.449 168.808 138.48 168.92 138.541 169.015C138.602 169.111 138.691 169.185 138.796 169.227C138.901 169.27 139.017 169.279 139.128 169.253C139.238 169.227 139.338 169.167 139.413 169.082C161.703 142.559 177.32 111.084 184.958 77.2903C187.082 67.8887 188.563 58.3533 189.391 48.7503C189.45 48.0883 188.441 48.0603 188.384 48.6563Z" fill="white"/>
</svg>
