<svg width="778" height="374" viewBox="0 0 778 374" fill="none" xmlns="http://www.w3.org/2000/svg">
<path d="M438.716 181.299L397.71 222.294L343.008 276.996H262.066L358.002 182.191L250.061 73.14L239.166 62.1415L257.417 0L438.716 181.299Z" fill="white"/>
<path d="M438.716 181.299L397.71 222.294L343.008 276.996H262.066L358.002 182.191L250.061 73.14L239.166 62.1415L257.417 0L438.716 181.299Z" fill="white"/>
<path d="M567.814 310.396L547.861 374L403.179 227.803L444.205 186.787L567.814 310.396Z" fill="white"/>
<path d="M531.241 88.7764L444.207 175.81L404.582 136.174L452.529 88.7764H531.241Z" fill="white"/>
<path d="M283.72 118.411L237.671 276.997H0L53.8511 89.2026H114.001L72.3515 229.143L190.907 230.606L234.569 89.2026H254.231L283.72 118.411Z" fill="white"/>
<path d="M749.444 88.777H550.589L504.042 246.626L503.783 247.498L495.358 276.084L495.088 276.986H735.156L755.389 201.232L756.499 197.081L757.599 192.952L719.457 184.505L761.231 179.38L761.895 176.89L762.206 175.707L769.843 147.069L777.895 116.948L749.434 88.7666L749.444 88.777ZM707.67 165.694L705.305 165.984L606.36 178.104L695.468 197.828L697.118 198.191L689.18 229.558H569.909L570.241 228.261L592.933 141.362L594.635 134.784H715.421L707.67 165.684V165.694Z" fill="white"/>
</svg>
